<svg width="25" height="25" viewBox="0 0 25 25" fill="none" xmlns="http://www.w3.org/2000/svg">
<path fill-rule="evenodd" clip-rule="evenodd" d="M9.71625 2.61177C9.93715 3.11796 9.70587 3.70737 9.19968 3.92826C7.85227 4.51625 6.66942 5.42535 5.75452 6.57609C4.83963 7.72683 4.22055 9.08416 3.95142 10.5294C3.68228 11.9747 3.77129 13.4639 4.21065 14.8668C4.65001 16.2697 5.42635 17.5437 6.4718 18.5772C7.51724 19.6108 8.79996 20.3726 10.2078 20.7959C11.6157 21.2192 13.1058 21.2912 14.5479 21.0056C15.99 20.7199 17.3402 20.0854 18.4804 19.1574C19.6206 18.2295 20.5161 17.0363 21.0887 15.6823C21.3038 15.1736 21.8905 14.9356 22.3992 15.1507C22.9079 15.3658 23.1459 15.9525 22.9308 16.4612C22.231 18.1161 21.1364 19.5744 19.7428 20.7086C18.3492 21.8428 16.699 22.6184 14.9364 22.9675C13.1739 23.3165 11.3526 23.2286 9.63192 22.7112C7.91122 22.1938 6.34345 21.2628 5.06568 19.9995C3.78791 18.7363 2.83906 17.1792 2.30206 15.4645C1.76506 13.7499 1.65628 11.9297 1.98522 10.1633C2.31416 8.39685 3.07081 6.73789 4.18901 5.33143C5.30722 3.92497 6.75293 2.81384 8.39976 2.0952C8.90595 1.8743 9.49536 2.10558 9.71625 2.61177Z" fill="#4E4E4E"/>
<path fill-rule="evenodd" clip-rule="evenodd" d="M12.0927 1.47466C12.2802 1.28712 12.5346 1.18176 12.7998 1.18176C14.2443 1.18176 15.6747 1.46629 17.0093 2.01909C18.3439 2.57189 19.5565 3.38214 20.578 4.40359C21.5994 5.42503 22.4097 6.63766 22.9625 7.97224C23.5153 9.30683 23.7998 10.7372 23.7998 12.1818C23.7998 12.734 23.3521 13.1818 22.7998 13.1818H12.7998C12.2475 13.1818 11.7998 12.734 11.7998 12.1818V2.18176C11.7998 1.91655 11.9052 1.66219 12.0927 1.47466ZM13.7998 3.23749V11.1818H21.7441C21.6503 10.3432 21.4389 9.52026 21.1147 8.73761C20.6624 7.64568 19.9995 6.65353 19.1638 5.8178C18.328 4.98207 17.3359 4.31914 16.244 3.86685C15.4613 3.54267 14.6384 3.33125 13.7998 3.23749Z" fill="#4E4E4E"/>
</svg>
