<svg width="200" height="200" viewBox="0 0 200 200" fill="none" xmlns="http://www.w3.org/2000/svg">
<rect width="200" height="200" rx="33" fill="#FAFAFA"/>
<g filter="url(#filter0_dddd_314_287)">
<rect x="136.44" y="70.0001" width="32.5275" height="92.9719" rx="16.2638" transform="rotate(40 136.44 70.0001)" fill="#2E7D32"/>
<rect x="38" y="90.9083" width="32.5275" height="92.9719" rx="16.2638" transform="rotate(-40 38 90.9083)" fill="#F5E6CA" fill-opacity="0.5"/>
<mask id="mask0_314_287" style="mask-type:alpha" maskUnits="userSpaceOnUse" x="44" y="44" width="73" height="80">
<path d="M48.4541 96.6329C42.6805 103.514 43.578 113.772 50.4588 119.546C57.3396 125.32 67.598 124.422 73.3717 117.541L112.225 71.2381C117.998 64.3574 117.101 54.0989 110.22 48.3252C103.339 42.5516 93.0807 43.4491 87.3071 50.3298L48.4541 96.6329Z" fill="#D7A86E"/>
</mask>
<g mask="url(#mask0_314_287)">
<path d="M126.396 116.871C132.17 123.752 142.428 124.65 149.309 118.876C156.19 113.102 157.088 102.844 151.314 95.963L112.461 49.6599C106.687 42.7791 96.4289 41.8816 89.5481 47.6553C82.6673 53.429 81.7698 63.6874 87.5435 70.5682L126.396 116.871Z" fill="#D7A86E"/>
</g>
</g>
<defs>
<filter id="filter0_dddd_314_287" x="3.64877" y="41.5198" width="154.06" height="154.96" filterUnits="userSpaceOnUse" color-interpolation-filters="sRGB">
<feFlood flood-opacity="0" result="BackgroundImageFix"/>
<feColorMatrix in="SourceAlpha" type="matrix" values="0 0 0 0 0 0 0 0 0 0 0 0 0 0 0 0 0 0 127 0" result="hardAlpha"/>
<feOffset dx="-2" dy="2"/>
<feGaussianBlur stdDeviation="2.5"/>
<feColorMatrix type="matrix" values="0 0 0 0 0 0 0 0 0 0 0 0 0 0 0 0 0 0 0.1 0"/>
<feBlend mode="normal" in2="BackgroundImageFix" result="effect1_dropShadow_314_287"/>
<feColorMatrix in="SourceAlpha" type="matrix" values="0 0 0 0 0 0 0 0 0 0 0 0 0 0 0 0 0 0 127 0" result="hardAlpha"/>
<feOffset dx="-6" dy="6"/>
<feGaussianBlur stdDeviation="4.5"/>
<feColorMatrix type="matrix" values="0 0 0 0 0 0 0 0 0 0 0 0 0 0 0 0 0 0 0.09 0"/>
<feBlend mode="normal" in2="effect1_dropShadow_314_287" result="effect2_dropShadow_314_287"/>
<feColorMatrix in="SourceAlpha" type="matrix" values="0 0 0 0 0 0 0 0 0 0 0 0 0 0 0 0 0 0 127 0" result="hardAlpha"/>
<feOffset dx="-15" dy="14"/>
<feGaussianBlur stdDeviation="6"/>
<feColorMatrix type="matrix" values="0 0 0 0 0 0 0 0 0 0 0 0 0 0 0 0 0 0 0.05 0"/>
<feBlend mode="normal" in2="effect2_dropShadow_314_287" result="effect3_dropShadow_314_287"/>
<feColorMatrix in="SourceAlpha" type="matrix" values="0 0 0 0 0 0 0 0 0 0 0 0 0 0 0 0 0 0 127 0" result="hardAlpha"/>
<feOffset dx="-26" dy="26"/>
<feGaussianBlur stdDeviation="7.5"/>
<feColorMatrix type="matrix" values="0 0 0 0 0 0 0 0 0 0 0 0 0 0 0 0 0 0 0.01 0"/>
<feBlend mode="normal" in2="effect3_dropShadow_314_287" result="effect4_dropShadow_314_287"/>
<feBlend mode="normal" in="SourceGraphic" in2="effect4_dropShadow_314_287" result="shape"/>
</filter>
</defs>
</svg>
