<svg width="12" height="20" viewBox="0 0 12 20" fill="none" xmlns="http://www.w3.org/2000/svg">
<path d="M3.36842 10.0071L11.1053 17.7588C11.3684 18.0225 11.4958 18.3301 11.4874 18.6817C11.4789 19.0332 11.3428 19.3408 11.0789 19.6045C10.8151 19.8682 10.5081 20 10.1579 20C9.80772 20 9.5007 19.8682 9.23684 19.6045L1.13158 11.5099C0.921053 11.299 0.763158 11.0617 0.657895 10.798C0.552632 10.5344 0.5 10.2707 0.5 10.0071C0.5 9.74339 0.552632 9.47972 0.657895 9.21605C0.763158 8.95239 0.921053 8.71509 1.13158 8.50415L9.23684 0.383236C9.5 0.119569 9.81158 -0.00804488 10.1716 0.000392434C10.5316 0.00882975 10.8428 0.145233 11.1053 0.409602C11.3677 0.673972 11.4993 0.981582 11.5 1.33243C11.5007 1.68329 11.3691 1.9909 11.1053 2.25527L3.36842 10.0071Z" fill="#4E4E4E"/>
</svg>
