<svg width="17" height="17" viewBox="0 0 17 17" fill="none" xmlns="http://www.w3.org/2000/svg">
<path opacity="0.5" d="M16.6667 6.66667H0V14.1667C0 14.8297 0.263392 15.4656 0.732233 15.9344C1.20107 16.4033 1.83696 16.6667 2.5 16.6667H14.1667C14.8297 16.6667 15.4656 16.4033 15.9344 15.9344C16.4033 15.4656 16.6667 14.8297 16.6667 14.1667V6.66667ZM4.16667 5C3.94565 5 3.73369 4.9122 3.57741 4.75592C3.42113 4.59964 3.33333 4.38768 3.33333 4.16667V0.833333C3.33333 0.61232 3.42113 0.400358 3.57741 0.244078C3.73369 0.0877973 3.94565 0 4.16667 0C4.38768 0 4.59964 0.0877973 4.75592 0.244078C4.9122 0.400358 5 0.61232 5 0.833333V4.16667C5 4.38768 4.9122 4.59964 4.75592 4.75592C4.59964 4.9122 4.38768 5 4.16667 5ZM12.5 5C12.279 5 12.067 4.9122 11.9107 4.75592C11.7545 4.59964 11.6667 4.38768 11.6667 4.16667V0.833333C11.6667 0.61232 11.7545 0.400358 11.9107 0.244078C12.067 0.0877973 12.279 0 12.5 0C12.721 0 12.933 0.0877973 13.0893 0.244078C13.2455 0.400358 13.3333 0.61232 13.3333 0.833333V4.16667C13.3333 4.38768 13.2455 4.59964 13.0893 4.75592C12.933 4.9122 12.721 5 12.5 5Z" fill="#4E4E4E"/>
<path d="M14.1667 1.66666H13.3333V4.16666C13.3333 4.38767 13.2455 4.59963 13.0893 4.75591C12.933 4.91219 12.721 4.99999 12.5 4.99999C12.279 4.99999 12.067 4.91219 11.9107 4.75591C11.7545 4.59963 11.6667 4.38767 11.6667 4.16666V1.66666H5V4.16666C5 4.38767 4.9122 4.59963 4.75592 4.75591C4.59964 4.91219 4.38768 4.99999 4.16667 4.99999C3.94565 4.99999 3.73369 4.91219 3.57741 4.75591C3.42113 4.59963 3.33333 4.38767 3.33333 4.16666V1.66666H2.5C1.83696 1.66666 1.20107 1.93005 0.732233 2.39889C0.263392 2.86773 0 3.50362 0 4.16666V6.66666H16.6667V4.16666C16.6667 3.50362 16.4033 2.86773 15.9344 2.39889C15.4656 1.93005 14.8297 1.66666 14.1667 1.66666Z" fill="#4E4E4E"/>
</svg>
