<svg width="17" height="17" viewBox="0 0 17 17" fill="none" xmlns="http://www.w3.org/2000/svg">
<path d="M3 4C3 2.93913 3.42143 1.92172 4.17157 1.17157C4.92172 0.421427 5.93913 0 7 0C8.06087 0 9.07828 0.421427 9.82843 1.17157C10.5786 1.92172 11 2.93913 11 4C11 5.06087 10.5786 6.07828 9.82843 6.82843C9.07828 7.57857 8.06087 8 7 8C5.93913 8 4.92172 7.57857 4.17157 6.82843C3.42143 6.07828 3 5.06087 3 4ZM7 1C6.20435 1 5.44129 1.31607 4.87868 1.87868C4.31607 2.44129 4 3.20435 4 4C4 4.79565 4.31607 5.55871 4.87868 6.12132C5.44129 6.68393 6.20435 7 7 7C7.79565 7 8.55871 6.68393 9.12132 6.12132C9.68393 5.55871 10 4.79565 10 4C10 3.20435 9.68393 2.44129 9.12132 1.87868C8.55871 1.31607 7.79565 1 7 1ZM0 11C0 9.887 0.903 9 2.009 9H8.257C8.00229 9.30845 7.78198 9.64377 7.6 10H2.009C1.448 10 1 10.447 1 11C1 12.309 1.622 13.284 2.673 13.953C3.743 14.636 5.265 15 7 15C7.2 15 7.39733 14.995 7.592 14.985C7.766 15.327 7.972 15.6463 8.21 15.943C7.81467 15.981 7.41133 16 7 16C5.145 16 3.417 15.614 2.135 14.797C0.833 13.967 0 12.69 0 11ZM17 12.5C17 13.6935 16.5259 14.8381 15.682 15.682C14.8381 16.5259 13.6935 17 12.5 17C11.3065 17 10.1619 16.5259 9.31802 15.682C8.47411 14.8381 8 13.6935 8 12.5C8 11.3065 8.47411 10.1619 9.31802 9.31802C10.1619 8.47411 11.3065 8 12.5 8C13.6935 8 14.8381 8.47411 15.682 9.31802C16.5259 10.1619 17 11.3065 17 12.5ZM14.354 11.354C14.4479 11.2601 14.5006 11.1328 14.5006 11C14.5006 10.8672 14.4479 10.7399 14.354 10.646C14.2601 10.5521 14.1328 10.4994 14 10.4994C13.8672 10.4994 13.7399 10.5521 13.646 10.646L12.5 11.793L11.354 10.646C11.2601 10.5521 11.1328 10.4994 11 10.4994C10.8672 10.4994 10.7399 10.5521 10.646 10.646C10.5521 10.7399 10.4994 10.8672 10.4994 11C10.4994 11.1328 10.5521 11.2601 10.646 11.354L11.793 12.5L10.646 13.646C10.5995 13.6925 10.5626 13.7477 10.5375 13.8084C10.5123 13.8692 10.4994 13.9343 10.4994 14C10.4994 14.0657 10.5123 14.1308 10.5375 14.1916C10.5626 14.2523 10.5995 14.3075 10.646 14.354C10.6925 14.4005 10.7477 14.4374 10.8084 14.4625C10.8692 14.4877 10.9343 14.5006 11 14.5006C11.0657 14.5006 11.1308 14.4877 11.1916 14.4625C11.2523 14.4374 11.3075 14.4005 11.354 14.354L12.5 13.207L13.646 14.354C13.6925 14.4005 13.7477 14.4374 13.8084 14.4625C13.8692 14.4877 13.9343 14.5006 14 14.5006C14.0657 14.5006 14.1308 14.4877 14.1916 14.4625C14.2523 14.4374 14.3075 14.4005 14.354 14.354C14.4005 14.3075 14.4374 14.2523 14.4625 14.1916C14.4877 14.1308 14.5006 14.0657 14.5006 14C14.5006 13.9343 14.4877 13.8692 14.4625 13.8084C14.4374 13.7477 14.4005 13.6925 14.354 13.646L13.207 12.5L14.354 11.354Z" fill="#FF0000"/>
</svg>
