<svg width="18" height="19" viewBox="0 0 18 19" fill="none" xmlns="http://www.w3.org/2000/svg">
<path d="M2.82113 4.21252L7.37396 1.74965C7.88018 1.47641 8.4464 1.33334 9.02166 1.33334C9.59691 1.33334 10.1631 1.47641 10.6693 1.74965L15.2222 4.21252C15.7715 4.50905 16.2307 4.94836 16.5512 5.48409C16.8718 6.01982 17.0418 6.63212 17.0433 7.25641V13.8645C17.0433 14.7845 16.6778 15.6668 16.0273 16.3173C15.3768 16.9679 14.4945 17.3333 13.5745 17.3333H4.46882C3.54883 17.3333 2.66653 16.9679 2.016 16.3173C1.36546 15.6668 1 14.7845 1 13.8645V7.25641C1.00155 6.63212 1.17156 6.01982 1.49208 5.48409C1.8126 4.94836 2.27176 4.50905 2.82113 4.21252Z" stroke="#2E7D32" stroke-width="1.5"/>
<path d="M1.13876 6.29382L7.28725 9.84937C7.81458 10.1538 8.41276 10.3141 9.02167 10.3141C9.63057 10.3141 10.2288 10.1538 10.7561 9.84937L16.9479 6.38054" stroke="#2E7D32" stroke-width="1.5" stroke-linecap="round" stroke-linejoin="round"/>
</svg>
