<svg width="14" height="14" viewBox="0 0 14 14" fill="none" xmlns="http://www.w3.org/2000/svg">
<path fill-rule="evenodd" clip-rule="evenodd" d="M6.66666 0C10.348 0 13.3333 2.98531 13.3333 6.66666C13.3333 10.348 10.348 13.3333 6.66666 13.3333C2.98531 13.3333 0 10.348 0 6.66666C0 2.98531 2.98531 0 6.66666 0ZM6.66666 1.33334C3.72603 1.33334 1.33334 3.726 1.33334 6.66666C1.33334 9.60734 3.726 12 6.66666 12C9.60734 12 12 9.60734 12 6.66666C12 3.726 9.60734 1.33334 6.66666 1.33334ZM8.19534 4.19534L9.138 5.138L7.60934 6.66666L9.138 8.19534L8.19534 9.138L6.66666 7.60934L5.138 9.138L4.19534 8.19534L5.724 6.66666L4.19534 5.138L5.138 4.19534L6.66666 5.724L8.19534 4.19534Z" fill="#FAFAFA"/>
</svg>
