<svg width="12" height="18" viewBox="0 0 12 18" fill="none" xmlns="http://www.w3.org/2000/svg">
<path d="M11.501 9.03301L7.26 6.57501L9.398 1.44401C9.4726 1.29161 9.50733 1.12278 9.49893 0.953313C9.49053 0.783843 9.43927 0.619276 9.34995 0.475009C9.26063 0.330743 9.13618 0.211494 8.98823 0.12842C8.84028 0.0453461 8.67367 0.00116372 8.504 7.09105e-06C8.27846 -0.000841934 8.05927 0.0745734 7.882 0.214007L7.812 0.274007L0.311997 7.37401C0.19925 7.48108 0.112969 7.61292 0.0599806 7.7591C0.00699203 7.90528 -0.0112499 8.06179 0.00669787 8.21623C0.0246456 8.37068 0.0782907 8.51883 0.163388 8.64897C0.248486 8.7791 0.362701 8.88764 0.496997 8.96601L4.739 11.426L2.576 16.616C2.48678 16.8277 2.47325 17.0637 2.53769 17.2842C2.60213 17.5047 2.7406 17.6963 2.92978 17.8266C3.11895 17.957 3.34727 18.0181 3.57627 17.9998C3.80527 17.9815 4.02096 17.8848 4.187 17.726L11.687 10.624C11.7995 10.5169 11.8855 10.385 11.9383 10.2389C11.9911 10.0928 12.0092 9.93639 11.9912 9.78207C11.9731 9.62776 11.9195 9.47976 11.8344 9.34975C11.7493 9.21975 11.6352 9.11131 11.501 9.03301Z" fill="#4E4E4E"/>
</svg>
