<svg width="18" height="20" viewBox="0 0 18 20" fill="none" xmlns="http://www.w3.org/2000/svg">
<path d="M14.29 9.96898C14.2919 10.3215 14.1537 10.6604 13.9058 10.9111C13.6579 11.1618 13.3206 11.3039 12.968 11.306C12.7934 11.3051 12.6206 11.2698 12.4596 11.2021C12.2986 11.1344 12.1525 11.0356 12.0296 10.9115C11.9068 10.7873 11.8096 10.6402 11.7436 10.4785C11.6776 10.3168 11.6441 10.1436 11.645 9.96898C11.644 9.79424 11.6774 9.621 11.7433 9.45917C11.8092 9.29734 11.9064 9.15009 12.0293 9.02583C12.1521 8.90157 12.2983 8.80274 12.4594 8.73499C12.6204 8.66724 12.7933 8.6319 12.968 8.63098C13.698 8.63098 14.29 9.22998 14.29 9.96898Z" fill="#FAFAFA"/>
<path fill-rule="evenodd" clip-rule="evenodd" d="M15.1322 5.40802C14.2832 5.28802 13.1902 5.28802 11.8272 5.28802H6.17318C4.81018 5.28802 3.71718 5.28802 2.86818 5.40802C1.99118 5.53302 1.26018 5.80103 0.71618 6.42803C0.17318 7.05603 0.00617973 7.82502 0.000179728 8.72102C-0.00582027 9.58702 0.13918 10.683 0.31918 12.05L0.68418 14.821C0.82518 15.89 0.93918 16.754 1.11618 17.431C1.30118 18.135 1.57318 18.72 2.08418 19.172C2.59518 19.624 3.20418 19.82 3.91818 19.912C4.60518 20 5.46818 20 6.53318 20H11.4672C12.5322 20 13.3952 20 14.0822 19.912C14.7972 19.82 15.4052 19.624 15.9162 19.172C16.4272 18.72 16.6992 18.135 16.8842 17.431C17.0612 16.754 17.1752 15.889 17.3162 14.821L17.6812 12.05C17.8612 10.683 18.0062 9.58703 18.0002 8.72003C17.9932 7.82503 17.8282 7.05602 17.2842 6.42902C16.7402 5.80102 16.0092 5.53302 15.1322 5.40802ZM3.05218 6.73203C2.32618 6.83603 1.95818 7.02403 1.71218 7.31003C1.46418 7.59503 1.32818 7.98802 1.32218 8.73002C1.31718 9.49202 1.44818 10.495 1.63718 11.925L1.68718 12.305L2.05818 12.032C3.01818 11.33 4.43418 11.364 5.34618 12.127L8.73018 14.96C9.05018 15.228 9.60118 15.278 9.99918 15.044L10.2342 14.906C11.3592 14.244 12.8682 14.314 13.9062 15.096L15.7382 16.476C15.8282 15.98 15.9092 15.371 16.0112 14.6L16.3632 11.925C16.5522 10.495 16.6832 9.49202 16.6772 8.73002C16.6722 7.98802 16.5362 7.59503 16.2892 7.31003C16.0422 7.02403 15.6742 6.83603 14.9472 6.73203C14.2022 6.62603 13.2022 6.62502 11.7752 6.62502H6.22518C4.79818 6.62502 3.79718 6.62603 3.05218 6.73203Z" fill="#FAFAFA"/>
<path d="M5.85877 0H12.1408C12.3508 0 12.5108 1.05239e-07 12.6508 0.0150001C13.1296 0.0682603 13.5844 0.252506 13.9653 0.547483C14.3462 0.842461 14.6384 1.23675 14.8098 1.687H3.18977C3.36113 1.23675 3.65332 0.842461 4.03422 0.547483C4.41511 0.252506 4.86996 0.0682603 5.34877 0.0150001C5.48877 1.05239e-07 5.64877 0 5.85877 0ZM3.87977 2.5C2.62777 2.5 1.60177 3.34 1.25977 4.454L1.23877 4.524C1.59677 4.404 1.96877 4.324 2.34677 4.271C3.31977 4.132 4.54877 4.132 5.97577 4.132H12.1788C13.6058 4.132 14.8348 4.132 15.8068 4.271C16.1848 4.324 16.5568 4.403 16.9168 4.524L16.8958 4.454C16.5528 3.34 15.5268 2.5 14.2758 2.5H3.87977Z" fill="#FAFAFA"/>
</svg>
