<svg width="16" height="14" viewBox="0 0 16 14" fill="none" xmlns="http://www.w3.org/2000/svg">
<path d="M0.727273 1.79754L1.65818 0.873901L13.8182 13.0339L12.8945 13.9648L10.6545 11.7248C9.81818 12.0012 8.93091 12.1466 8 12.1466C4.36364 12.1466 1.25818 9.88481 0 6.69208C0.501818 5.41208 1.30182 4.28481 2.32 3.39026L0.727273 1.79754ZM8 4.51027C8.57865 4.51027 9.13361 4.74013 9.54278 5.1493C9.95195 5.55848 10.1818 6.11343 10.1818 6.69208C10.1822 6.93977 10.1404 7.18571 10.0582 7.41936L7.27273 4.6339C7.50638 4.55171 7.75232 4.5099 8 4.51027ZM8 1.23754C11.6364 1.23754 14.7418 3.49936 16 6.69208C15.4061 8.19967 14.3975 9.50831 13.0909 10.4666L12.0582 9.42663C13.064 8.73095 13.8751 7.78961 14.4145 6.69208C13.8267 5.49199 12.9139 4.48091 11.7799 3.77379C10.646 3.06668 9.33636 2.69191 8 2.69208C7.20727 2.69208 6.42909 2.82299 5.70182 3.05572L4.58182 1.94299C5.62909 1.49208 6.78545 1.23754 8 1.23754ZM1.58545 6.69208C2.17334 7.89218 3.08615 8.90326 4.2201 9.61037C5.35405 10.3175 6.66364 10.6923 8 10.6921C8.50182 10.6921 8.99636 10.6412 9.45455 10.5394L7.79636 8.8739C7.2903 8.81966 6.81805 8.59381 6.45816 8.23392C6.09827 7.87403 5.87243 7.40178 5.81818 6.89572L3.34545 4.41572C2.62545 5.0339 2.02182 5.80481 1.58545 6.69208Z" fill="#4E4E4E" fill-opacity="0.4"/>
</svg>
