<svg width="25" height="25" viewBox="0 0 25 25" fill="none" xmlns="http://www.w3.org/2000/svg">
<path fill-rule="evenodd" clip-rule="evenodd" d="M11.786 1.39253C12.1471 1.11167 12.6527 1.11167 13.0138 1.39253L22.0138 8.39253C22.2574 8.58199 22.3999 8.87329 22.3999 9.18188V20.1819C22.3999 20.9775 22.0838 21.7406 21.5212 22.3032C20.9586 22.8658 20.1956 23.1819 19.3999 23.1819H5.3999C4.60425 23.1819 3.84119 22.8658 3.27858 22.3032C2.71597 21.7406 2.3999 20.9775 2.3999 20.1819V9.18188C2.3999 8.87329 2.54238 8.58199 2.78596 8.39253L11.786 1.39253ZM4.3999 9.67097V20.1819C4.3999 20.4471 4.50526 20.7015 4.6928 20.889C4.88033 21.0765 5.13469 21.1819 5.3999 21.1819H19.3999C19.6651 21.1819 19.9195 21.0765 20.107 20.889C20.2945 20.7015 20.3999 20.4471 20.3999 20.1819V9.67097L12.3999 3.44875L4.3999 9.67097Z" fill="url(#paint0_linear_294_253)"/>
<path fill-rule="evenodd" clip-rule="evenodd" d="M8.3999 12.1819C8.3999 11.6296 8.84762 11.1819 9.3999 11.1819H15.3999C15.9522 11.1819 16.3999 11.6296 16.3999 12.1819V22.1819C16.3999 22.7342 15.9522 23.1819 15.3999 23.1819C14.8476 23.1819 14.3999 22.7342 14.3999 22.1819V13.1819H10.3999V22.1819C10.3999 22.7342 9.95219 23.1819 9.3999 23.1819C8.84762 23.1819 8.3999 22.7342 8.3999 22.1819V12.1819Z" fill="url(#paint1_linear_294_253)"/>
<defs>
<linearGradient id="paint0_linear_294_253" x1="12.3999" y1="1.18188" x2="12.3999" y2="23.1819" gradientUnits="userSpaceOnUse">
<stop stop-color="#2E7D32"/>
<stop offset="1" stop-color="#66A15A"/>
</linearGradient>
<linearGradient id="paint1_linear_294_253" x1="12.3999" y1="11.1819" x2="12.3999" y2="23.1819" gradientUnits="userSpaceOnUse">
<stop stop-color="#2E7D32"/>
<stop offset="1" stop-color="#66A15A"/>
</linearGradient>
</defs>
</svg>
