<svg width="17" height="19" viewBox="0 0 17 19" fill="none" xmlns="http://www.w3.org/2000/svg">
<path fill-rule="evenodd" clip-rule="evenodd" d="M0 4.72208C0 3.4697 0.497503 2.26863 1.38306 1.38306C2.26863 0.497503 3.4697 0 4.72208 0H9.44415C9.69463 0 9.93484 0.0995006 10.112 0.276613C10.2891 0.453725 10.3886 0.693941 10.3886 0.944415C10.3886 1.19489 10.2891 1.43511 10.112 1.61222C9.93484 1.78933 9.69463 1.88883 9.44415 1.88883H4.72208C3.97065 1.88883 3.25001 2.18733 2.71867 2.71867C2.18733 3.25001 1.88883 3.97065 1.88883 4.72208V14.1662C1.88883 14.9177 2.18733 15.6383 2.71867 16.1696C3.25001 16.701 3.97065 16.9995 4.72208 16.9995H9.44415C9.69463 16.9995 9.93484 17.099 10.112 17.2761C10.2891 17.4532 10.3886 17.6934 10.3886 17.9439C10.3886 18.1944 10.2891 18.4346 10.112 18.6117C9.93484 18.7888 9.69463 18.8883 9.44415 18.8883H4.72208C3.4697 18.8883 2.26863 18.3908 1.38306 17.5052C0.497503 16.6197 0 15.4186 0 14.1662V4.72208Z" fill="#FFA500"/>
<path fill-rule="evenodd" clip-rule="evenodd" d="M10.8321 5.02062C10.9169 4.93004 11.0188 4.85706 11.1318 4.80586C11.2448 4.75465 11.3668 4.72621 11.4908 4.72218C11.6148 4.71814 11.7384 4.73859 11.8546 4.78234C11.9707 4.8261 12.077 4.8923 12.1675 4.97718L16.7007 9.22705C16.7951 9.31539 16.8703 9.42216 16.9217 9.54074C16.9731 9.65933 16.9997 9.78721 16.9997 9.91647C16.9997 10.0457 16.9731 10.1736 16.9217 10.2922C16.8703 10.4108 16.7951 10.5176 16.7007 10.6059L12.1675 14.8558C12.077 14.9406 11.9706 15.0068 11.8545 15.0505C11.7384 15.0942 11.6148 15.1146 11.4908 15.1106C11.3668 15.1066 11.2448 15.0782 11.1318 15.027C11.0188 14.9758 10.917 14.9029 10.8321 14.8123C10.7473 14.7218 10.6811 14.6154 10.6374 14.4993C10.5937 14.3832 10.5732 14.2596 10.5773 14.1356C10.5813 14.0116 10.6097 13.8896 10.6609 13.7766C10.7121 13.6636 10.785 13.5617 10.8756 13.4769L13.6663 10.8609H4.72176C4.47128 10.8609 4.23107 10.7614 4.05396 10.5843C3.87684 10.4072 3.77734 10.1669 3.77734 9.91647C3.77734 9.666 3.87684 9.42578 4.05396 9.24867C4.23107 9.07155 4.47128 8.97205 4.72176 8.97205H13.6663L10.8756 6.35602C10.785 6.27122 10.712 6.16939 10.6608 6.05637C10.6096 5.94335 10.5812 5.82134 10.5771 5.69732C10.5731 5.57331 10.5935 5.44971 10.6373 5.3336C10.681 5.21749 10.7473 5.11113 10.8321 5.02062Z" fill="#FFA500"/>
</svg>
