<svg width="18" height="4" viewBox="0 0 18 4" fill="none" xmlns="http://www.w3.org/2000/svg">
<path d="M1.7259 0.476196C1.26816 0.476196 0.829172 0.658031 0.505504 0.9817C0.181835 1.30537 0 1.74436 0 2.20209C0 2.65983 0.181835 3.09882 0.505504 3.42249C0.829172 3.74616 1.26816 3.92799 1.7259 3.92799C2.18363 3.92799 2.62262 3.74616 2.94629 3.42249C3.26996 3.09882 3.4518 2.65983 3.4518 2.20209C3.4518 1.74436 3.26996 1.30537 2.94629 0.9817C2.62262 0.658031 2.18363 0.476196 1.7259 0.476196ZM6.90359 2.20209C6.90359 1.74436 7.08543 1.30537 7.40909 0.9817C7.73276 0.658031 8.17175 0.476196 8.62949 0.476196C9.08723 0.476196 9.52621 0.658031 9.84988 0.9817C10.1736 1.30537 10.3554 1.74436 10.3554 2.20209C10.3554 2.65983 10.1736 3.09882 9.84988 3.42249C9.52621 3.74616 9.08723 3.92799 8.62949 3.92799C8.17175 3.92799 7.73276 3.74616 7.40909 3.42249C7.08543 3.09882 6.90359 2.65983 6.90359 2.20209ZM13.8072 2.20209C13.8072 1.74436 13.989 1.30537 14.3127 0.9817C14.6364 0.658031 15.0753 0.476196 15.5331 0.476196C15.9908 0.476196 16.4298 0.658031 16.7535 0.9817C17.0771 1.30537 17.259 1.74436 17.259 2.20209C17.259 2.65983 17.0771 3.09882 16.7535 3.42249C16.4298 3.74616 15.9908 3.92799 15.5331 3.92799C15.0753 3.92799 14.6364 3.74616 14.3127 3.42249C13.989 3.09882 13.8072 2.65983 13.8072 2.20209Z" fill="url(#paint0_linear_99_321)"/>
<defs>
<linearGradient id="paint0_linear_99_321" x1="8.62949" y1="0.476196" x2="8.62949" y2="3.92799" gradientUnits="userSpaceOnUse">
<stop stop-color="#2E7D32"/>
<stop offset="1" stop-color="#66A15A"/>
</linearGradient>
</defs>
</svg>
