<svg width="97" height="35" viewBox="0 0 97 35" fill="none" xmlns="http://www.w3.org/2000/svg">
<rect width="7.85322" height="22.4465" rx="3.92661" transform="matrix(0.766044 0.642788 -0.642787 0.766045 23.7668 7.75699)" fill="#2E7D32"/>
<rect width="7.85322" height="22.4465" rx="3.92661" transform="matrix(0.766044 -0.642788 0.642787 0.766045 0 12.805)" fill="#F5E6CA" fill-opacity="0.5"/>
<mask id="mask0_59_80" style="mask-type:alpha" maskUnits="userSpaceOnUse" x="1" y="1" width="18" height="20">
<path d="M2.52397 14.1871C1.13002 15.8483 1.34671 18.3251 3.00796 19.719C4.6692 21.113 7.14593 20.8963 8.53989 19.235L17.9203 8.05593C19.3142 6.39467 19.0975 3.91794 17.4363 2.52399C15.775 1.13003 13.2983 1.34672 11.9043 3.00797L2.52397 14.1871Z" fill="#D7A86E"/>
</mask>
<g mask="url(#mask0_59_80)">
<path d="M21.3417 19.0733C22.7357 20.7345 25.2124 20.9512 26.8737 19.5572C28.5349 18.1633 28.7516 15.6866 27.3577 14.0253L17.9773 2.8462C16.5833 1.18495 14.1066 0.968261 12.4454 2.36222C10.7841 3.75617 10.5674 6.2329 11.9614 7.89415L21.3417 19.0733Z" fill="#D7A86E"/>
</g>
<mask id="path-5-outside-1_59_80" maskUnits="userSpaceOnUse" x="29" y="11" width="67" height="16" fill="black">
<rect fill="white" x="29" y="11" width="67" height="16"/>
<path d="M36.74 26.24C36.2733 26.24 35.86 26.12 35.5 25.88C35.14 25.6267 34.8467 25.22 34.62 24.66L30.04 12H32.14L36.2 23.88C36.2933 24.1067 36.38 24.26 36.46 24.34C36.54 24.42 36.6333 24.46 36.74 24.46C36.8733 24.46 36.9733 24.42 37.04 24.34C37.12 24.26 37.2067 24.1067 37.3 23.88L41.44 12H43.46L38.88 24.66C38.68 25.2067 38.3933 25.6067 38.02 25.86C37.6467 26.1133 37.22 26.24 36.74 26.24ZM44.9561 26V15.8H46.8161V26H44.9561ZM45.8961 14.18C45.5628 14.18 45.2694 14.06 45.0161 13.82C44.7761 13.5667 44.6561 13.2733 44.6561 12.94C44.6561 12.6067 44.7761 12.32 45.0161 12.08C45.2694 11.8267 45.5628 11.7 45.8961 11.7C46.2294 11.7 46.5161 11.8267 46.7561 12.08C47.0094 12.32 47.1361 12.6067 47.1361 12.94C47.1361 13.2733 47.0094 13.5667 46.7561 13.82C46.5161 14.06 46.2294 14.18 45.8961 14.18ZM53.2017 26C52.2951 26 51.5817 25.74 51.0617 25.22C50.5551 24.7 50.3017 23.9933 50.3017 23.1V13.24H52.1417V22.98C52.1417 23.42 52.2617 23.7733 52.5017 24.04C52.7551 24.2933 53.1017 24.42 53.5417 24.42H55.6017V26H53.2017ZM48.5417 17.38V15.8H55.6417V17.38H48.5417ZM61.7938 26.24C60.8071 26.24 59.9538 26.0067 59.2338 25.54C58.5138 25.06 57.9604 24.4133 57.5738 23.6C57.1871 22.7867 56.9938 21.8867 56.9938 20.9C56.9938 19.9 57.2071 19 57.6338 18.2C58.0604 17.3867 58.6738 16.7467 59.4738 16.28C60.2738 15.8 61.2338 15.56 62.3538 15.56C63.4338 15.56 64.3604 15.7933 65.1338 16.26C65.9071 16.7267 66.5004 17.36 66.9138 18.16C67.3404 18.96 67.5538 19.8533 67.5538 20.84V26H65.6938V23.92H65.6538C65.4538 24.3067 65.1804 24.68 64.8338 25.04C64.5004 25.3867 64.0804 25.6733 63.5738 25.9C63.0671 26.1267 62.4738 26.24 61.7938 26.24ZM62.2738 24.66C62.9404 24.66 63.5271 24.5 64.0338 24.18C64.5538 23.8467 64.9538 23.3933 65.2338 22.82C65.5271 22.2333 65.6738 21.58 65.6738 20.86C65.6738 20.1533 65.5338 19.52 65.2538 18.96C64.9871 18.4 64.6004 17.96 64.0938 17.64C63.5871 17.3067 62.9938 17.14 62.3138 17.14C61.5938 17.14 60.9738 17.3067 60.4538 17.64C59.9471 17.9733 59.5538 18.4267 59.2738 19C59.0071 19.56 58.8738 20.2 58.8738 20.92C58.8738 21.6133 59.0071 22.2467 59.2738 22.82C59.5404 23.38 59.9271 23.8267 60.4338 24.16C60.9404 24.4933 61.5538 24.66 62.2738 24.66ZM76.7834 26C75.7168 26 74.7434 25.82 73.8634 25.46C72.9834 25.0867 72.2234 24.58 71.5834 23.94C70.9568 23.3 70.4701 22.56 70.1234 21.72C69.7901 20.8667 69.6234 19.96 69.6234 19C69.6234 18.04 69.7901 17.14 70.1234 16.3C70.4701 15.4467 70.9568 14.7 71.5834 14.06C72.2234 13.42 72.9834 12.92 73.8634 12.56C74.7434 12.1867 75.7168 12 76.7834 12H78.5834V13.7H76.8434C76.0834 13.7 75.3834 13.8333 74.7434 14.1C74.1034 14.3667 73.5434 14.74 73.0634 15.22C72.5968 15.7 72.2301 16.26 71.9634 16.9C71.6968 17.54 71.5634 18.24 71.5634 19C71.5634 19.7467 71.6968 20.4467 71.9634 21.1C72.2301 21.74 72.5968 22.3 73.0634 22.78C73.5434 23.26 74.1034 23.6333 74.7434 23.9C75.3834 24.1667 76.0834 24.3 76.8434 24.3H78.5834V26H76.7834ZM84.9969 26.24C84.0102 26.24 83.1569 26.0067 82.4369 25.54C81.7169 25.06 81.1635 24.4133 80.7769 23.6C80.3902 22.7867 80.1969 21.8867 80.1969 20.9C80.1969 19.9 80.4102 19 80.8369 18.2C81.2635 17.3867 81.8769 16.7467 82.6769 16.28C83.4769 15.8 84.4369 15.56 85.5569 15.56C86.6369 15.56 87.5635 15.7933 88.3369 16.26C89.1102 16.7267 89.7035 17.36 90.1169 18.16C90.5435 18.96 90.7569 19.8533 90.7569 20.84V26H88.8969V23.92H88.8569C88.6569 24.3067 88.3835 24.68 88.0369 25.04C87.7035 25.3867 87.2835 25.6733 86.7769 25.9C86.2702 26.1267 85.6769 26.24 84.9969 26.24ZM85.4769 24.66C86.1435 24.66 86.7302 24.5 87.2369 24.18C87.7569 23.8467 88.1569 23.3933 88.4369 22.82C88.7302 22.2333 88.8769 21.58 88.8769 20.86C88.8769 20.1533 88.7369 19.52 88.4569 18.96C88.1902 18.4 87.8035 17.96 87.2969 17.64C86.7902 17.3067 86.1969 17.14 85.5169 17.14C84.7969 17.14 84.1769 17.3067 83.6569 17.64C83.1502 17.9733 82.7569 18.4267 82.4769 19C82.2102 19.56 82.0769 20.2 82.0769 20.92C82.0769 21.6133 82.2102 22.2467 82.4769 22.82C82.7435 23.38 83.1302 23.8267 83.6369 24.16C84.1435 24.4933 84.7569 24.66 85.4769 24.66ZM93.6866 26V11.4H95.5266V26H93.6866Z"/>
</mask>
<path d="M36.74 26.24C36.2733 26.24 35.86 26.12 35.5 25.88C35.14 25.6267 34.8467 25.22 34.62 24.66L30.04 12H32.14L36.2 23.88C36.2933 24.1067 36.38 24.26 36.46 24.34C36.54 24.42 36.6333 24.46 36.74 24.46C36.8733 24.46 36.9733 24.42 37.04 24.34C37.12 24.26 37.2067 24.1067 37.3 23.88L41.44 12H43.46L38.88 24.66C38.68 25.2067 38.3933 25.6067 38.02 25.86C37.6467 26.1133 37.22 26.24 36.74 26.24ZM44.9561 26V15.8H46.8161V26H44.9561ZM45.8961 14.18C45.5628 14.18 45.2694 14.06 45.0161 13.82C44.7761 13.5667 44.6561 13.2733 44.6561 12.94C44.6561 12.6067 44.7761 12.32 45.0161 12.08C45.2694 11.8267 45.5628 11.7 45.8961 11.7C46.2294 11.7 46.5161 11.8267 46.7561 12.08C47.0094 12.32 47.1361 12.6067 47.1361 12.94C47.1361 13.2733 47.0094 13.5667 46.7561 13.82C46.5161 14.06 46.2294 14.18 45.8961 14.18ZM53.2017 26C52.2951 26 51.5817 25.74 51.0617 25.22C50.5551 24.7 50.3017 23.9933 50.3017 23.1V13.24H52.1417V22.98C52.1417 23.42 52.2617 23.7733 52.5017 24.04C52.7551 24.2933 53.1017 24.42 53.5417 24.42H55.6017V26H53.2017ZM48.5417 17.38V15.8H55.6417V17.38H48.5417ZM61.7938 26.24C60.8071 26.24 59.9538 26.0067 59.2338 25.54C58.5138 25.06 57.9604 24.4133 57.5738 23.6C57.1871 22.7867 56.9938 21.8867 56.9938 20.9C56.9938 19.9 57.2071 19 57.6338 18.2C58.0604 17.3867 58.6738 16.7467 59.4738 16.28C60.2738 15.8 61.2338 15.56 62.3538 15.56C63.4338 15.56 64.3604 15.7933 65.1338 16.26C65.9071 16.7267 66.5004 17.36 66.9138 18.16C67.3404 18.96 67.5538 19.8533 67.5538 20.84V26H65.6938V23.92H65.6538C65.4538 24.3067 65.1804 24.68 64.8338 25.04C64.5004 25.3867 64.0804 25.6733 63.5738 25.9C63.0671 26.1267 62.4738 26.24 61.7938 26.24ZM62.2738 24.66C62.9404 24.66 63.5271 24.5 64.0338 24.18C64.5538 23.8467 64.9538 23.3933 65.2338 22.82C65.5271 22.2333 65.6738 21.58 65.6738 20.86C65.6738 20.1533 65.5338 19.52 65.2538 18.96C64.9871 18.4 64.6004 17.96 64.0938 17.64C63.5871 17.3067 62.9938 17.14 62.3138 17.14C61.5938 17.14 60.9738 17.3067 60.4538 17.64C59.9471 17.9733 59.5538 18.4267 59.2738 19C59.0071 19.56 58.8738 20.2 58.8738 20.92C58.8738 21.6133 59.0071 22.2467 59.2738 22.82C59.5404 23.38 59.9271 23.8267 60.4338 24.16C60.9404 24.4933 61.5538 24.66 62.2738 24.66ZM76.7834 26C75.7168 26 74.7434 25.82 73.8634 25.46C72.9834 25.0867 72.2234 24.58 71.5834 23.94C70.9568 23.3 70.4701 22.56 70.1234 21.72C69.7901 20.8667 69.6234 19.96 69.6234 19C69.6234 18.04 69.7901 17.14 70.1234 16.3C70.4701 15.4467 70.9568 14.7 71.5834 14.06C72.2234 13.42 72.9834 12.92 73.8634 12.56C74.7434 12.1867 75.7168 12 76.7834 12H78.5834V13.7H76.8434C76.0834 13.7 75.3834 13.8333 74.7434 14.1C74.1034 14.3667 73.5434 14.74 73.0634 15.22C72.5968 15.7 72.2301 16.26 71.9634 16.9C71.6968 17.54 71.5634 18.24 71.5634 19C71.5634 19.7467 71.6968 20.4467 71.9634 21.1C72.2301 21.74 72.5968 22.3 73.0634 22.78C73.5434 23.26 74.1034 23.6333 74.7434 23.9C75.3834 24.1667 76.0834 24.3 76.8434 24.3H78.5834V26H76.7834ZM84.9969 26.24C84.0102 26.24 83.1569 26.0067 82.4369 25.54C81.7169 25.06 81.1635 24.4133 80.7769 23.6C80.3902 22.7867 80.1969 21.8867 80.1969 20.9C80.1969 19.9 80.4102 19 80.8369 18.2C81.2635 17.3867 81.8769 16.7467 82.6769 16.28C83.4769 15.8 84.4369 15.56 85.5569 15.56C86.6369 15.56 87.5635 15.7933 88.3369 16.26C89.1102 16.7267 89.7035 17.36 90.1169 18.16C90.5435 18.96 90.7569 19.8533 90.7569 20.84V26H88.8969V23.92H88.8569C88.6569 24.3067 88.3835 24.68 88.0369 25.04C87.7035 25.3867 87.2835 25.6733 86.7769 25.9C86.2702 26.1267 85.6769 26.24 84.9969 26.24ZM85.4769 24.66C86.1435 24.66 86.7302 24.5 87.2369 24.18C87.7569 23.8467 88.1569 23.3933 88.4369 22.82C88.7302 22.2333 88.8769 21.58 88.8769 20.86C88.8769 20.1533 88.7369 19.52 88.4569 18.96C88.1902 18.4 87.8035 17.96 87.2969 17.64C86.7902 17.3067 86.1969 17.14 85.5169 17.14C84.7969 17.14 84.1769 17.3067 83.6569 17.64C83.1502 17.9733 82.7569 18.4267 82.4769 19C82.2102 19.56 82.0769 20.2 82.0769 20.92C82.0769 21.6133 82.2102 22.2467 82.4769 22.82C82.7435 23.38 83.1302 23.8267 83.6369 24.16C84.1435 24.4933 84.7569 24.66 85.4769 24.66ZM93.6866 26V11.4H95.5266V26H93.6866Z" fill="url(#paint0_linear_59_80)"/>
<path d="M35.5 25.88L35.3849 26.0436L35.3891 26.0464L35.5 25.88ZM34.62 24.66L34.4318 24.7281L34.4346 24.735L34.62 24.66ZM30.04 12V11.8H29.755L29.8519 12.068L30.04 12ZM32.14 12L32.3293 11.9353L32.283 11.8H32.14V12ZM36.2 23.88L36.0104 23.9448L36.0151 23.9562L36.2 23.88ZM37.04 24.34L36.8986 24.1986L36.8922 24.205L36.8864 24.212L37.04 24.34ZM37.3 23.88L37.4852 23.9563L37.4889 23.9458L37.3 23.88ZM41.44 12V11.8H41.2979L41.2511 11.9342L41.44 12ZM43.46 12L43.6481 12.068L43.745 11.8H43.46V12ZM38.88 24.66L39.0678 24.7287L39.0681 24.728L38.88 24.66ZM36.74 26.04C36.3096 26.04 35.9355 25.93 35.6109 25.7136L35.3891 26.0464C35.7845 26.31 36.2371 26.44 36.74 26.44V26.04ZM35.6151 25.7164C35.2962 25.4921 35.0228 25.1221 34.8054 24.585L34.4346 24.735C34.6705 25.3179 34.9838 25.7613 35.3849 26.0436L35.6151 25.7164ZM34.8081 24.592L30.2281 11.932L29.8519 12.068L34.4319 24.728L34.8081 24.592ZM30.04 12.2H32.14V11.8H30.04V12.2ZM31.9507 12.0647L36.0107 23.9447L36.3893 23.8153L32.3293 11.9353L31.9507 12.0647ZM36.0151 23.9562C36.1094 24.1854 36.2084 24.3712 36.3186 24.4814L36.6014 24.1986C36.5516 24.1488 36.4772 24.028 36.3849 23.8039L36.0151 23.9562ZM36.3186 24.4814C36.4336 24.5964 36.5768 24.66 36.74 24.66V24.26C36.6898 24.26 36.6464 24.2436 36.6014 24.1986L36.3186 24.4814ZM36.74 24.66C36.9147 24.66 37.0788 24.6058 37.1936 24.468L36.8864 24.212C36.8679 24.2342 36.8319 24.26 36.74 24.26V24.66ZM37.1814 24.4814C37.2916 24.3712 37.3906 24.1854 37.4849 23.9562L37.1151 23.8039C37.0228 24.028 36.9484 24.1488 36.8986 24.1986L37.1814 24.4814ZM37.4889 23.9458L41.6289 12.0658L41.2511 11.9342L37.1111 23.8142L37.4889 23.9458ZM41.44 12.2H43.46V11.8H41.44V12.2ZM43.2719 11.932L38.6919 24.592L39.0681 24.728L43.6481 12.068L43.2719 11.932ZM38.6922 24.5913C38.5024 25.11 38.2375 25.4707 37.9077 25.6945L38.1323 26.0255C38.5492 25.7426 38.8576 25.3033 39.0678 24.7287L38.6922 24.5913ZM37.9077 25.6945C37.5697 25.9239 37.1827 26.04 36.74 26.04V26.44C37.2573 26.44 37.7237 26.3028 38.1323 26.0255L37.9077 25.6945ZM44.9561 26H44.7561V26.2H44.9561V26ZM44.9561 15.8V15.6H44.7561V15.8H44.9561ZM46.8161 15.8H47.0161V15.6H46.8161V15.8ZM46.8161 26V26.2H47.0161V26H46.8161ZM45.0161 13.82L44.8707 13.9577L44.8785 13.9652L45.0161 13.82ZM45.0161 12.08L44.8747 11.9386L45.0161 12.08ZM46.7561 12.08L46.6107 12.2177L46.6185 12.2252L46.7561 12.08ZM46.7561 13.82L46.6147 13.6786L46.7561 13.82ZM45.1561 26V15.8H44.7561V26H45.1561ZM44.9561 16H46.8161V15.6H44.9561V16ZM46.6161 15.8V26H47.0161V15.8H46.6161ZM46.8161 25.8H44.9561V26.2H46.8161V25.8ZM45.8961 13.98C45.6165 13.98 45.3718 13.8814 45.1536 13.6748L44.8785 13.9652C45.1671 14.2386 45.509 14.38 45.8961 14.38V13.98ZM45.1613 13.6825C44.9547 13.4643 44.8561 13.2196 44.8561 12.94H44.4561C44.4561 13.3271 44.5975 13.669 44.8709 13.9575L45.1613 13.6825ZM44.8561 12.94C44.8561 12.6608 44.9543 12.4247 45.1575 12.2214L44.8747 11.9386C44.5979 12.2153 44.4561 12.5525 44.4561 12.94H44.8561ZM45.1575 12.2214C45.3764 12.0025 45.62 11.9 45.8961 11.9V11.5C45.5055 11.5 45.1624 11.6508 44.8747 11.9386L45.1575 12.2214ZM45.8961 11.9C46.1717 11.9 46.4067 12.002 46.6109 12.2175L46.9013 11.9425C46.6255 11.6513 46.2872 11.5 45.8961 11.5V11.9ZM46.6185 12.2252C46.8341 12.4294 46.9361 12.6644 46.9361 12.94H47.3361C47.3361 12.5489 47.1847 12.2106 46.8936 11.9348L46.6185 12.2252ZM46.9361 12.94C46.9361 13.2161 46.8336 13.4597 46.6147 13.6786L46.8975 13.9614C47.1853 13.6737 47.3361 13.3306 47.3361 12.94H46.9361ZM46.6147 13.6786C46.4114 13.8818 46.1753 13.98 45.8961 13.98V14.38C46.2835 14.38 46.6208 14.2382 46.8975 13.9614L46.6147 13.6786ZM51.0617 25.22L50.9185 25.3596L50.9203 25.3614L51.0617 25.22ZM50.3017 13.24V13.04H50.1017V13.24H50.3017ZM52.1417 13.24H52.3417V13.04H52.1417V13.24ZM52.5017 24.04L52.3529 24.174L52.3603 24.1814L52.5017 24.04ZM55.6017 24.42H55.8017V24.22H55.6017V24.42ZM55.6017 26V26.2H55.8017V26H55.6017ZM48.5417 17.38H48.3417V17.58H48.5417V17.38ZM48.5417 15.8V15.6H48.3417V15.8H48.5417ZM55.6417 15.8H55.8417V15.6H55.6417V15.8ZM55.6417 17.38V17.58H55.8417V17.38H55.6417ZM53.2017 25.8C52.335 25.8 51.6773 25.5527 51.2031 25.0786L50.9203 25.3614C51.4862 25.9273 52.2551 26.2 53.2017 26.2V25.8ZM51.205 25.0804C50.7427 24.606 50.5017 23.9539 50.5017 23.1H50.1017C50.1017 24.0328 50.3674 24.794 50.9185 25.3596L51.205 25.0804ZM50.5017 23.1V13.24H50.1017V23.1H50.5017ZM50.3017 13.44H52.1417V13.04H50.3017V13.44ZM51.9417 13.24V22.98H52.3417V13.24H51.9417ZM51.9417 22.98C51.9417 23.4577 52.0729 23.8625 52.3531 24.1738L52.6504 23.9062C52.4505 23.6841 52.3417 23.3823 52.3417 22.98H51.9417ZM52.3603 24.1814C52.6593 24.4805 53.0615 24.62 53.5417 24.62V24.22C53.1419 24.22 52.8508 24.1062 52.6431 23.8986L52.3603 24.1814ZM53.5417 24.62H55.6017V24.22H53.5417V24.62ZM55.4017 24.42V26H55.8017V24.42H55.4017ZM55.6017 25.8H53.2017V26.2H55.6017V25.8ZM48.7417 17.38V15.8H48.3417V17.38H48.7417ZM48.5417 16H55.6417V15.6H48.5417V16ZM55.4417 15.8V17.38H55.8417V15.8H55.4417ZM55.6417 17.18H48.5417V17.58H55.6417V17.18ZM59.2337 25.54L59.1228 25.7064L59.125 25.7078L59.2337 25.54ZM57.5737 23.6L57.3931 23.6859L57.5737 23.6ZM57.6338 18.2L57.8102 18.2941L57.8109 18.2929L57.6338 18.2ZM59.4738 16.28L59.5745 16.4528L59.5766 16.4515L59.4738 16.28ZM65.1338 16.26L65.0304 16.4312L65.1338 16.26ZM66.9137 18.16L66.736 18.2518L66.7373 18.2541L66.9137 18.16ZM67.5537 26V26.2H67.7537V26H67.5537ZM65.6937 26H65.4938V26.2H65.6937V26ZM65.6937 23.92H65.8937V23.72H65.6937V23.92ZM65.6538 23.92V23.72H65.532L65.4761 23.8281L65.6538 23.92ZM64.8338 25.04L64.6897 24.9013L64.6896 24.9014L64.8338 25.04ZM63.5737 25.9L63.4921 25.7174L63.5737 25.9ZM64.0337 24.18L64.1406 24.3491L64.1417 24.3484L64.0337 24.18ZM65.2337 22.82L65.0549 22.7306L65.054 22.7322L65.2337 22.82ZM65.2537 18.96L65.0731 19.046L65.0749 19.0494L65.2537 18.96ZM64.0938 17.64L63.9838 17.8071L63.9869 17.8091L64.0938 17.64ZM60.4538 17.64L60.3458 17.4716L60.3438 17.4729L60.4538 17.64ZM59.2738 19L59.094 18.9122L59.0932 18.914L59.2738 19ZM59.2738 22.82L59.0924 22.9044L59.0932 22.906L59.2738 22.82ZM60.4338 24.16L60.3238 24.3271L60.4338 24.16ZM61.7938 26.04C60.8398 26.04 60.0255 25.8148 59.3425 25.3722L59.125 25.7078C59.882 26.1985 60.7744 26.44 61.7938 26.44V26.04ZM59.3447 25.3736C58.656 24.9145 58.1262 24.2962 57.7544 23.5141L57.3931 23.6859C57.7947 24.5305 58.3715 25.2055 59.1228 25.7064L59.3447 25.3736ZM57.7544 23.5141C57.3816 22.7301 57.1938 21.8598 57.1938 20.9H56.7938C56.7938 21.9135 56.9925 22.8432 57.3931 23.6859L57.7544 23.5141ZM57.1938 20.9C57.1938 19.9294 57.4005 19.0623 57.8102 18.2941L57.4573 18.1059C57.0136 18.9377 56.7938 19.8706 56.7938 20.9H57.1938ZM57.8109 18.2929C58.2199 17.5131 58.8067 16.9007 59.5745 16.4528L59.373 16.1072C58.5408 16.5927 57.9009 17.2602 57.4566 18.1071L57.8109 18.2929ZM59.5766 16.4515C60.3399 15.9936 61.2627 15.76 62.3538 15.76V15.36C61.2048 15.36 60.2076 15.6064 59.3709 16.1085L59.5766 16.4515ZM62.3538 15.76C63.4045 15.76 64.2939 15.9868 65.0304 16.4312L65.2371 16.0888C64.427 15.5999 63.463 15.36 62.3538 15.36V15.76ZM65.0304 16.4312C65.7722 16.8789 66.3398 17.4847 66.7361 18.2518L67.0914 18.0682C66.6611 17.2352 66.042 16.5745 65.2371 16.0888L65.0304 16.4312ZM66.7373 18.2541C67.1472 19.0226 67.3538 19.8832 67.3538 20.84H67.7537C67.7537 19.8235 67.5337 18.8974 67.0902 18.0659L66.7373 18.2541ZM67.3538 20.84V26H67.7537V20.84H67.3538ZM67.5537 25.8H65.6937V26.2H67.5537V25.8ZM65.8937 26V23.92H65.4938V26H65.8937ZM65.6937 23.72H65.6538V24.12H65.6937V23.72ZM65.4761 23.8281C65.2862 24.1953 65.0249 24.5532 64.6897 24.9013L64.9778 25.1787C65.3359 24.8068 65.6213 24.418 65.8314 24.0119L65.4761 23.8281ZM64.6896 24.9014C64.3766 25.2269 63.9789 25.4997 63.4921 25.7174L63.6554 26.0826C64.182 25.847 64.6242 25.5464 64.9779 25.1786L64.6896 24.9014ZM63.4921 25.7174C63.0162 25.9303 62.4518 26.04 61.7938 26.04V26.44C62.4957 26.44 63.118 26.323 63.6554 26.0826L63.4921 25.7174ZM62.2738 24.86C62.9738 24.86 63.5984 24.6915 64.1405 24.3491L63.927 24.0109C63.4558 24.3085 62.907 24.46 62.2738 24.46V24.86ZM64.1417 24.3484C64.6936 23.9946 65.1179 23.5129 65.4135 22.9078L65.054 22.7322C64.7896 23.2738 64.4139 23.6987 63.9258 24.0116L64.1417 24.3484ZM65.4126 22.9094C65.7212 22.2924 65.8737 21.608 65.8737 20.86H65.4738C65.4738 21.552 65.333 22.1743 65.0549 22.7306L65.4126 22.9094ZM65.8737 20.86C65.8737 20.1263 65.7282 19.4617 65.4326 18.8706L65.0749 19.0494C65.3393 19.5783 65.4738 20.1804 65.4738 20.86H65.8737ZM65.4343 18.874C65.152 18.2812 64.7403 17.8118 64.2006 17.4709L63.9869 17.8091C64.4605 18.1082 64.8222 18.5188 65.0732 19.046L65.4343 18.874ZM64.2037 17.4729C63.6605 17.1156 63.0279 16.94 62.3138 16.94V17.34C62.9596 17.34 63.5137 17.4978 63.9838 17.8071L64.2037 17.4729ZM62.3138 16.94C61.562 16.94 60.9031 17.1144 60.3458 17.4716L60.5617 17.8084C61.0444 17.4989 61.6255 17.34 62.3138 17.34V16.94ZM60.3438 17.4729C59.8056 17.827 59.3889 18.3084 59.094 18.9122L59.4535 19.0878C59.7186 18.5449 60.0885 18.1197 60.5637 17.8071L60.3438 17.4729ZM59.0932 18.914C58.8118 19.5049 58.6737 20.175 58.6737 20.92H59.0737C59.0737 20.225 59.2023 19.6151 59.4543 19.086L59.0932 18.914ZM58.6737 20.92C58.6737 21.6396 58.8123 22.3021 59.0924 22.9043L59.4551 22.7357C59.2019 22.1912 59.0737 21.587 59.0737 20.92H58.6737ZM59.0932 22.906C59.3752 23.4982 59.7859 23.9732 60.3238 24.3271L60.5437 23.9929C60.0682 23.6801 59.7057 23.2618 59.4543 22.734L59.0932 22.906ZM60.3238 24.3271C60.8688 24.6856 61.5221 24.86 62.2738 24.86V24.46C61.5854 24.46 61.012 24.301 60.5437 23.9929L60.3238 24.3271ZM73.8634 25.46L73.7853 25.6441L73.7877 25.6451L73.8634 25.46ZM71.5834 23.94L71.4405 24.0799L71.442 24.0814L71.5834 23.94ZM70.1234 21.72L69.9371 21.7928L69.9386 21.7963L70.1234 21.72ZM70.1234 16.3L69.9381 16.2247L69.9375 16.2262L70.1234 16.3ZM71.5834 14.06L71.442 13.9186L71.4405 13.9201L71.5834 14.06ZM73.8634 12.56L73.9392 12.7451L73.9415 12.7441L73.8634 12.56ZM78.5834 12H78.7834V11.8H78.5834V12ZM78.5834 13.7V13.9H78.7834V13.7H78.5834ZM73.0634 15.22L72.922 15.0786L72.92 15.0806L73.0634 15.22ZM71.9634 16.9L71.7788 16.8231L71.9634 16.9ZM71.9634 21.1L71.7783 21.1756L71.7788 21.1769L71.9634 21.1ZM73.0634 22.78L72.92 22.9194L72.922 22.9214L73.0634 22.78ZM74.7434 23.9L74.8204 23.7154L74.7434 23.9ZM78.5834 24.3H78.7834V24.1H78.5834V24.3ZM78.5834 26V26.2H78.7834V26H78.5834ZM76.7834 25.8C75.7396 25.8 74.7924 25.6239 73.9392 25.2749L73.7877 25.6451C74.6945 26.0161 75.694 26.2 76.7834 26.2V25.8ZM73.9415 25.2759C73.0839 24.912 72.3457 24.4194 71.7249 23.7986L71.442 24.0814C72.1012 24.7406 72.883 25.2613 73.7853 25.6441L73.9415 25.2759ZM71.7263 23.8001C71.1179 23.1787 70.6453 22.4604 70.3083 21.6437L69.9386 21.7963C70.2949 22.6596 70.7957 23.4213 71.4405 24.0799L71.7263 23.8001ZM70.3097 21.6472C69.9859 20.8182 69.8234 19.9363 69.8234 19H69.4234C69.4234 19.9837 69.5943 20.9151 69.9371 21.7928L70.3097 21.6472ZM69.8234 19C69.8234 18.0637 69.9859 17.1889 70.3093 16.3738L69.9375 16.2262C69.5943 17.0911 69.4234 18.0163 69.4234 19H69.8234ZM70.3087 16.3753C70.6459 15.5453 71.1184 14.8208 71.7263 14.1999L71.4405 13.9201C70.7952 14.5792 70.2943 15.348 69.9381 16.2247L70.3087 16.3753ZM71.7249 14.2014C72.3451 13.5811 73.0825 13.0956 73.9392 12.7451L73.7877 12.3749C72.8844 12.7444 72.1017 13.2589 71.442 13.9186L71.7249 14.2014ZM73.9415 12.7441C74.7941 12.3824 75.7405 12.2 76.7834 12.2V11.8C75.693 11.8 74.6927 11.9909 73.7853 12.3759L73.9415 12.7441ZM76.7834 12.2H78.5834V11.8H76.7834V12.2ZM78.3834 12V13.7H78.7834V12H78.3834ZM78.5834 13.5H76.8434V13.9H78.5834V13.5ZM76.8434 13.5C76.0596 13.5 75.3331 13.6376 74.6665 13.9154L74.8204 14.2846C75.4337 14.029 76.1073 13.9 76.8434 13.9V13.5ZM74.6665 13.9154C74.0029 14.1919 73.4209 14.5797 72.922 15.0786L73.2049 15.3614C73.666 14.9003 74.2039 14.5415 74.8204 14.2846L74.6665 13.9154ZM72.92 15.0806C72.4352 15.5793 72.0548 16.1607 71.7788 16.8231L72.1481 16.9769C72.4054 16.3593 72.7583 15.8207 73.2068 15.3594L72.92 15.0806ZM71.7788 16.8231C71.5011 17.4897 71.3634 18.2161 71.3634 19H71.7634C71.7634 18.2639 71.8925 17.5903 72.1481 16.9769L71.7788 16.8231ZM71.3634 19C71.3634 19.7711 71.5012 20.4969 71.7783 21.1756L72.1486 21.0244C71.8923 20.3965 71.7634 19.7223 71.7634 19H71.3634ZM71.7788 21.1769C72.0548 21.8393 72.4352 22.4207 72.92 22.9194L73.2068 22.6406C72.7583 22.1793 72.4054 21.6407 72.1481 21.0231L71.7788 21.1769ZM72.922 22.9214C73.4209 23.4203 74.0029 23.8081 74.6665 24.0846L74.8204 23.7154C74.2039 23.4585 73.666 23.0997 73.2049 22.6386L72.922 22.9214ZM74.6665 24.0846C75.3331 24.3624 76.0596 24.5 76.8434 24.5V24.1C76.1073 24.1 75.4337 23.971 74.8204 23.7154L74.6665 24.0846ZM76.8434 24.5H78.5834V24.1H76.8434V24.5ZM78.3834 24.3V26H78.7834V24.3H78.3834ZM78.5834 25.8H76.7834V26.2H78.5834V25.8ZM82.4369 25.54L82.3259 25.7064L82.3281 25.7078L82.4369 25.54ZM80.7769 23.6L80.5962 23.6859L80.7769 23.6ZM80.8369 18.2L81.0134 18.2941L81.014 18.2929L80.8369 18.2ZM82.6769 16.28L82.7777 16.4528L82.7798 16.4515L82.6769 16.28ZM88.3369 16.26L88.2335 16.4312L88.3369 16.26ZM90.1169 18.16L89.9392 18.2518L89.9404 18.2541L90.1169 18.16ZM90.7569 26V26.2H90.9569V26H90.7569ZM88.8969 26H88.6969V26.2H88.8969V26ZM88.8969 23.92H89.0969V23.72H88.8969V23.92ZM88.8569 23.92V23.72H88.7352L88.6792 23.8281L88.8569 23.92ZM88.0369 25.04L87.8928 24.9013L87.8927 24.9014L88.0369 25.04ZM86.7769 25.9L86.6952 25.7174L86.7769 25.9ZM87.2369 24.18L87.3437 24.3491L87.3448 24.3484L87.2369 24.18ZM88.4369 22.82L88.258 22.7306L88.2572 22.7322L88.4369 22.82ZM88.4569 18.96L88.2763 19.046L88.278 19.0494L88.4569 18.96ZM87.2969 17.64L87.1869 17.8071L87.1901 17.8091L87.2969 17.64ZM83.6569 17.64L83.5489 17.4716L83.547 17.4729L83.6569 17.64ZM82.4769 19L82.2972 18.9122L82.2963 18.914L82.4769 19ZM82.4769 22.82L82.2955 22.9044L82.2963 22.906L82.4769 22.82ZM83.6369 24.16L83.527 24.3271L83.6369 24.16ZM84.9969 26.04C84.0429 26.04 83.2286 25.8148 82.5457 25.3722L82.3281 25.7078C83.0851 26.1985 83.9775 26.44 84.9969 26.44V26.04ZM82.5478 25.3736C81.8592 24.9145 81.3293 24.2962 80.9575 23.5141L80.5962 23.6859C80.9978 24.5305 81.5746 25.2055 82.3259 25.7064L82.5478 25.3736ZM80.9575 23.5141C80.5848 22.7301 80.3969 21.8598 80.3969 20.9H79.9969C79.9969 21.9135 80.1956 22.8432 80.5962 23.6859L80.9575 23.5141ZM80.3969 20.9C80.3969 19.9294 80.6037 19.0623 81.0133 18.2941L80.6604 18.1059C80.2167 18.9377 79.9969 19.8706 79.9969 20.9H80.3969ZM81.014 18.2929C81.4231 17.5131 82.0098 16.9007 82.7776 16.4528L82.5761 16.1072C81.744 16.5927 81.104 17.2602 80.6598 18.1071L81.014 18.2929ZM82.7798 16.4515C83.543 15.9936 84.4658 15.76 85.5569 15.76V15.36C84.4079 15.36 83.4108 15.6064 82.574 16.1085L82.7798 16.4515ZM85.5569 15.76C86.6076 15.76 87.497 15.9868 88.2335 16.4312L88.4402 16.0888C87.6301 15.5999 86.6661 15.36 85.5569 15.36V15.76ZM88.2335 16.4312C88.9753 16.8789 89.5429 17.4847 89.9392 18.2518L90.2946 18.0682C89.8642 17.2352 89.2451 16.5745 88.4402 16.0888L88.2335 16.4312ZM89.9404 18.2541C90.3503 19.0226 90.5569 19.8832 90.5569 20.84H90.9569C90.9569 19.8235 90.7368 18.8974 90.2933 18.0659L89.9404 18.2541ZM90.5569 20.84V26H90.9569V20.84H90.5569ZM90.7569 25.8H88.8969V26.2H90.7569V25.8ZM89.0969 26V23.92H88.6969V26H89.0969ZM88.8969 23.72H88.8569V24.12H88.8969V23.72ZM88.6792 23.8281C88.4893 24.1953 88.228 24.5532 87.8928 24.9013L88.1809 25.1787C88.5391 24.8068 88.8244 24.418 89.0345 24.0119L88.6792 23.8281ZM87.8927 24.9014C87.5797 25.2269 87.182 25.4997 86.6952 25.7174L86.8585 26.0826C87.3851 25.847 87.8274 25.5464 88.181 25.1786L87.8927 24.9014ZM86.6952 25.7174C86.2193 25.9303 85.6549 26.04 84.9969 26.04V26.44C85.6988 26.44 86.3211 26.323 86.8585 26.0826L86.6952 25.7174ZM85.4769 24.86C86.177 24.86 86.8015 24.6915 87.3437 24.3491L87.1301 24.0109C86.6589 24.3085 86.1101 24.46 85.4769 24.46V24.86ZM87.3448 24.3484C87.8967 23.9946 88.3211 23.5129 88.6166 22.9078L88.2572 22.7322C87.9927 23.2738 87.617 23.6987 87.1289 24.0116L87.3448 24.3484ZM88.6158 22.9094C88.9243 22.2924 89.0769 21.608 89.0769 20.86H88.6769C88.6769 21.552 88.5361 22.1743 88.258 22.7306L88.6158 22.9094ZM89.0769 20.86C89.0769 20.1263 88.9313 19.4617 88.6358 18.8706L88.278 19.0494C88.5424 19.5783 88.6769 20.1804 88.6769 20.86H89.0769ZM88.6374 18.874C88.3551 18.2812 87.9434 17.8118 87.4037 17.4709L87.1901 17.8091C87.6636 18.1082 88.0253 18.5188 88.2763 19.046L88.6374 18.874ZM87.4068 17.4729C86.8636 17.1156 86.231 16.94 85.5169 16.94V17.34C86.1627 17.34 86.7168 17.4978 87.187 17.8071L87.4068 17.4729ZM85.5169 16.94C84.7651 16.94 84.1062 17.1144 83.5489 17.4716L83.7648 17.8084C84.2476 17.4989 84.8287 17.34 85.5169 17.34V16.94ZM83.547 17.4729C83.0087 17.827 82.592 18.3084 82.2972 18.9122L82.6566 19.0878C82.9217 18.5449 83.2917 18.1197 83.7668 17.8071L83.547 17.4729ZM82.2963 18.914C82.0149 19.5049 81.8769 20.175 81.8769 20.92H82.2769C82.2769 20.225 82.4055 19.6151 82.6574 19.086L82.2963 18.914ZM81.8769 20.92C81.8769 21.6396 82.0154 22.3021 82.2955 22.9043L82.6582 22.7357C82.405 22.1912 82.2769 21.587 82.2769 20.92H81.8769ZM82.2963 22.906C82.5783 23.4982 82.9891 23.9732 83.527 24.3271L83.7468 23.9929C83.2714 23.6801 82.9088 23.2618 82.6574 22.734L82.2963 22.906ZM83.527 24.3271C84.072 24.6856 84.7252 24.86 85.4769 24.86V24.46C84.7885 24.46 84.2151 24.301 83.7468 23.9929L83.527 24.3271ZM93.6866 26H93.4866V26.2H93.6866V26ZM93.6866 11.4V11.2H93.4866V11.4H93.6866ZM95.5266 11.4H95.7266V11.2H95.5266V11.4ZM95.5266 26V26.2H95.7266V26H95.5266ZM93.8866 26V11.4H93.4866V26H93.8866ZM93.6866 11.6H95.5266V11.2H93.6866V11.6ZM95.3266 11.4V26H95.7266V11.4H95.3266ZM95.5266 25.8H93.6866V26.2H95.5266V25.8Z" fill="#D9D9D9" mask="url(#path-5-outside-1_59_80)"/>
<defs>
<linearGradient id="paint0_linear_59_80" x1="63.5" y1="3" x2="63.5" y2="35" gradientUnits="userSpaceOnUse">
<stop stop-color="#2E7D32"/>
<stop offset="1" stop-color="#F5E6CA"/>
</linearGradient>
</defs>
</svg>
