<svg width="126" height="66" viewBox="0 0 126 66" fill="none" xmlns="http://www.w3.org/2000/svg">
<g filter="url(#filter0_dddd_108_230)">
<rect width="7.85322" height="22.4465" rx="3.92661" transform="matrix(0.766044 0.642788 -0.642787 0.766045 52.7666 9.75699)" fill="#2E7D32"/>
<rect width="7.85322" height="22.4465" rx="3.92661" transform="matrix(0.766044 -0.642788 0.642787 0.766045 29 14.805)" fill="#F5E6CA" fill-opacity="0.5"/>
<mask id="mask0_108_230" style="mask-type:alpha" maskUnits="userSpaceOnUse" x="30" y="3" width="18" height="20">
<path d="M31.524 16.1871C30.13 17.8483 30.3467 20.3251 32.008 21.719C33.6692 23.113 36.1459 22.8963 37.5399 21.235L46.9203 10.0559C48.3142 8.39467 48.0975 5.91794 46.4363 4.52399C44.775 3.13003 42.2983 3.34672 40.9043 5.00797L31.524 16.1871Z" fill="#D7A86E"/>
</mask>
<g mask="url(#mask0_108_230)">
<path d="M50.3417 21.0733C51.7357 22.7345 54.2124 22.9512 55.8737 21.5572C57.5349 20.1633 57.7516 17.6866 56.3577 16.0253L46.9773 4.8462C45.5833 3.18495 43.1066 2.96826 41.4454 4.36222C39.7841 5.75617 39.5674 8.2329 40.9614 9.89415L50.3417 21.0733Z" fill="#D7A86E"/>
</g>
</g>
<mask id="path-5-outside-1_108_230" maskUnits="userSpaceOnUse" x="58" y="13" width="67" height="16" fill="black">
<rect fill="white" x="58" y="13" width="67" height="16"/>
<path d="M65.74 28.24C65.2733 28.24 64.86 28.12 64.5 27.88C64.14 27.6267 63.8467 27.22 63.62 26.66L59.04 14H61.14L65.2 25.88C65.2933 26.1067 65.38 26.26 65.46 26.34C65.54 26.42 65.6333 26.46 65.74 26.46C65.8733 26.46 65.9733 26.42 66.04 26.34C66.12 26.26 66.2067 26.1067 66.3 25.88L70.44 14H72.46L67.88 26.66C67.68 27.2067 67.3933 27.6067 67.02 27.86C66.6467 28.1133 66.22 28.24 65.74 28.24ZM73.9561 28V17.8H75.8161V28H73.9561ZM74.8961 16.18C74.5628 16.18 74.2694 16.06 74.0161 15.82C73.7761 15.5667 73.6561 15.2733 73.6561 14.94C73.6561 14.6067 73.7761 14.32 74.0161 14.08C74.2694 13.8267 74.5628 13.7 74.8961 13.7C75.2294 13.7 75.5161 13.8267 75.7561 14.08C76.0094 14.32 76.1361 14.6067 76.1361 14.94C76.1361 15.2733 76.0094 15.5667 75.7561 15.82C75.5161 16.06 75.2294 16.18 74.8961 16.18ZM82.2017 28C81.2951 28 80.5817 27.74 80.0617 27.22C79.5551 26.7 79.3017 25.9933 79.3017 25.1V15.24H81.1417V24.98C81.1417 25.42 81.2617 25.7733 81.5017 26.04C81.7551 26.2933 82.1017 26.42 82.5417 26.42H84.6017V28H82.2017ZM77.5417 19.38V17.8H84.6417V19.38H77.5417ZM90.7938 28.24C89.8071 28.24 88.9538 28.0067 88.2338 27.54C87.5138 27.06 86.9604 26.4133 86.5738 25.6C86.1871 24.7867 85.9938 23.8867 85.9938 22.9C85.9938 21.9 86.2071 21 86.6338 20.2C87.0604 19.3867 87.6738 18.7467 88.4738 18.28C89.2738 17.8 90.2338 17.56 91.3538 17.56C92.4338 17.56 93.3604 17.7933 94.1338 18.26C94.9071 18.7267 95.5004 19.36 95.9138 20.16C96.3404 20.96 96.5538 21.8533 96.5538 22.84V28H94.6938V25.92H94.6538C94.4538 26.3067 94.1804 26.68 93.8338 27.04C93.5004 27.3867 93.0804 27.6733 92.5738 27.9C92.0671 28.1267 91.4738 28.24 90.7938 28.24ZM91.2738 26.66C91.9404 26.66 92.5271 26.5 93.0338 26.18C93.5538 25.8467 93.9538 25.3933 94.2338 24.82C94.5271 24.2333 94.6738 23.58 94.6738 22.86C94.6738 22.1533 94.5338 21.52 94.2538 20.96C93.9871 20.4 93.6004 19.96 93.0938 19.64C92.5871 19.3067 91.9938 19.14 91.3138 19.14C90.5938 19.14 89.9738 19.3067 89.4538 19.64C88.9471 19.9733 88.5538 20.4267 88.2738 21C88.0071 21.56 87.8738 22.2 87.8738 22.92C87.8738 23.6133 88.0071 24.2467 88.2738 24.82C88.5404 25.38 88.9271 25.8267 89.4338 26.16C89.9404 26.4933 90.5538 26.66 91.2738 26.66ZM105.783 28C104.717 28 103.743 27.82 102.863 27.46C101.983 27.0867 101.223 26.58 100.583 25.94C99.9568 25.3 99.4701 24.56 99.1234 23.72C98.7901 22.8667 98.6234 21.96 98.6234 21C98.6234 20.04 98.7901 19.14 99.1234 18.3C99.4701 17.4467 99.9568 16.7 100.583 16.06C101.223 15.42 101.983 14.92 102.863 14.56C103.743 14.1867 104.717 14 105.783 14H107.583V15.7H105.843C105.083 15.7 104.383 15.8333 103.743 16.1C103.103 16.3667 102.543 16.74 102.063 17.22C101.597 17.7 101.23 18.26 100.963 18.9C100.697 19.54 100.563 20.24 100.563 21C100.563 21.7467 100.697 22.4467 100.963 23.1C101.23 23.74 101.597 24.3 102.063 24.78C102.543 25.26 103.103 25.6333 103.743 25.9C104.383 26.1667 105.083 26.3 105.843 26.3H107.583V28H105.783ZM113.997 28.24C113.01 28.24 112.157 28.0067 111.437 27.54C110.717 27.06 110.164 26.4133 109.777 25.6C109.39 24.7867 109.197 23.8867 109.197 22.9C109.197 21.9 109.41 21 109.837 20.2C110.264 19.3867 110.877 18.7467 111.677 18.28C112.477 17.8 113.437 17.56 114.557 17.56C115.637 17.56 116.564 17.7933 117.337 18.26C118.11 18.7267 118.704 19.36 119.117 20.16C119.544 20.96 119.757 21.8533 119.757 22.84V28H117.897V25.92H117.857C117.657 26.3067 117.384 26.68 117.037 27.04C116.704 27.3867 116.284 27.6733 115.777 27.9C115.27 28.1267 114.677 28.24 113.997 28.24ZM114.477 26.66C115.144 26.66 115.73 26.5 116.237 26.18C116.757 25.8467 117.157 25.3933 117.437 24.82C117.73 24.2333 117.877 23.58 117.877 22.86C117.877 22.1533 117.737 21.52 117.457 20.96C117.19 20.4 116.804 19.96 116.297 19.64C115.79 19.3067 115.197 19.14 114.517 19.14C113.797 19.14 113.177 19.3067 112.657 19.64C112.15 19.9733 111.757 20.4267 111.477 21C111.21 21.56 111.077 22.2 111.077 22.92C111.077 23.6133 111.21 24.2467 111.477 24.82C111.744 25.38 112.13 25.8267 112.637 26.16C113.144 26.4933 113.757 26.66 114.477 26.66ZM122.687 28V13.4H124.527V28H122.687Z"/>
</mask>
<path d="M65.74 28.24C65.2733 28.24 64.86 28.12 64.5 27.88C64.14 27.6267 63.8467 27.22 63.62 26.66L59.04 14H61.14L65.2 25.88C65.2933 26.1067 65.38 26.26 65.46 26.34C65.54 26.42 65.6333 26.46 65.74 26.46C65.8733 26.46 65.9733 26.42 66.04 26.34C66.12 26.26 66.2067 26.1067 66.3 25.88L70.44 14H72.46L67.88 26.66C67.68 27.2067 67.3933 27.6067 67.02 27.86C66.6467 28.1133 66.22 28.24 65.74 28.24ZM73.9561 28V17.8H75.8161V28H73.9561ZM74.8961 16.18C74.5628 16.18 74.2694 16.06 74.0161 15.82C73.7761 15.5667 73.6561 15.2733 73.6561 14.94C73.6561 14.6067 73.7761 14.32 74.0161 14.08C74.2694 13.8267 74.5628 13.7 74.8961 13.7C75.2294 13.7 75.5161 13.8267 75.7561 14.08C76.0094 14.32 76.1361 14.6067 76.1361 14.94C76.1361 15.2733 76.0094 15.5667 75.7561 15.82C75.5161 16.06 75.2294 16.18 74.8961 16.18ZM82.2017 28C81.2951 28 80.5817 27.74 80.0617 27.22C79.5551 26.7 79.3017 25.9933 79.3017 25.1V15.24H81.1417V24.98C81.1417 25.42 81.2617 25.7733 81.5017 26.04C81.7551 26.2933 82.1017 26.42 82.5417 26.42H84.6017V28H82.2017ZM77.5417 19.38V17.8H84.6417V19.38H77.5417ZM90.7938 28.24C89.8071 28.24 88.9538 28.0067 88.2338 27.54C87.5138 27.06 86.9604 26.4133 86.5738 25.6C86.1871 24.7867 85.9938 23.8867 85.9938 22.9C85.9938 21.9 86.2071 21 86.6338 20.2C87.0604 19.3867 87.6738 18.7467 88.4738 18.28C89.2738 17.8 90.2338 17.56 91.3538 17.56C92.4338 17.56 93.3604 17.7933 94.1338 18.26C94.9071 18.7267 95.5004 19.36 95.9138 20.16C96.3404 20.96 96.5538 21.8533 96.5538 22.84V28H94.6938V25.92H94.6538C94.4538 26.3067 94.1804 26.68 93.8338 27.04C93.5004 27.3867 93.0804 27.6733 92.5738 27.9C92.0671 28.1267 91.4738 28.24 90.7938 28.24ZM91.2738 26.66C91.9404 26.66 92.5271 26.5 93.0338 26.18C93.5538 25.8467 93.9538 25.3933 94.2338 24.82C94.5271 24.2333 94.6738 23.58 94.6738 22.86C94.6738 22.1533 94.5338 21.52 94.2538 20.96C93.9871 20.4 93.6004 19.96 93.0938 19.64C92.5871 19.3067 91.9938 19.14 91.3138 19.14C90.5938 19.14 89.9738 19.3067 89.4538 19.64C88.9471 19.9733 88.5538 20.4267 88.2738 21C88.0071 21.56 87.8738 22.2 87.8738 22.92C87.8738 23.6133 88.0071 24.2467 88.2738 24.82C88.5404 25.38 88.9271 25.8267 89.4338 26.16C89.9404 26.4933 90.5538 26.66 91.2738 26.66ZM105.783 28C104.717 28 103.743 27.82 102.863 27.46C101.983 27.0867 101.223 26.58 100.583 25.94C99.9568 25.3 99.4701 24.56 99.1234 23.72C98.7901 22.8667 98.6234 21.96 98.6234 21C98.6234 20.04 98.7901 19.14 99.1234 18.3C99.4701 17.4467 99.9568 16.7 100.583 16.06C101.223 15.42 101.983 14.92 102.863 14.56C103.743 14.1867 104.717 14 105.783 14H107.583V15.7H105.843C105.083 15.7 104.383 15.8333 103.743 16.1C103.103 16.3667 102.543 16.74 102.063 17.22C101.597 17.7 101.23 18.26 100.963 18.9C100.697 19.54 100.563 20.24 100.563 21C100.563 21.7467 100.697 22.4467 100.963 23.1C101.23 23.74 101.597 24.3 102.063 24.78C102.543 25.26 103.103 25.6333 103.743 25.9C104.383 26.1667 105.083 26.3 105.843 26.3H107.583V28H105.783ZM113.997 28.24C113.01 28.24 112.157 28.0067 111.437 27.54C110.717 27.06 110.164 26.4133 109.777 25.6C109.39 24.7867 109.197 23.8867 109.197 22.9C109.197 21.9 109.41 21 109.837 20.2C110.264 19.3867 110.877 18.7467 111.677 18.28C112.477 17.8 113.437 17.56 114.557 17.56C115.637 17.56 116.564 17.7933 117.337 18.26C118.11 18.7267 118.704 19.36 119.117 20.16C119.544 20.96 119.757 21.8533 119.757 22.84V28H117.897V25.92H117.857C117.657 26.3067 117.384 26.68 117.037 27.04C116.704 27.3867 116.284 27.6733 115.777 27.9C115.27 28.1267 114.677 28.24 113.997 28.24ZM114.477 26.66C115.144 26.66 115.73 26.5 116.237 26.18C116.757 25.8467 117.157 25.3933 117.437 24.82C117.73 24.2333 117.877 23.58 117.877 22.86C117.877 22.1533 117.737 21.52 117.457 20.96C117.19 20.4 116.804 19.96 116.297 19.64C115.79 19.3067 115.197 19.14 114.517 19.14C113.797 19.14 113.177 19.3067 112.657 19.64C112.15 19.9733 111.757 20.4267 111.477 21C111.21 21.56 111.077 22.2 111.077 22.92C111.077 23.6133 111.21 24.2467 111.477 24.82C111.744 25.38 112.13 25.8267 112.637 26.16C113.144 26.4933 113.757 26.66 114.477 26.66ZM122.687 28V13.4H124.527V28H122.687Z" fill="url(#paint0_linear_108_230)"/>
<path d="M64.5 27.88L64.3849 28.0436L64.3891 28.0464L64.5 27.88ZM63.62 26.66L63.4318 26.7281L63.4346 26.735L63.62 26.66ZM59.04 14V13.8H58.755L58.8519 14.068L59.04 14ZM61.14 14L61.3293 13.9353L61.283 13.8H61.14V14ZM65.2 25.88L65.0104 25.9448L65.0151 25.9562L65.2 25.88ZM66.04 26.34L65.8986 26.1986L65.8922 26.205L65.8864 26.212L66.04 26.34ZM66.3 25.88L66.4852 25.9563L66.4889 25.9458L66.3 25.88ZM70.44 14V13.8H70.2979L70.2511 13.9342L70.44 14ZM72.46 14L72.6481 14.068L72.745 13.8H72.46V14ZM67.88 26.66L68.0678 26.7287L68.0681 26.728L67.88 26.66ZM65.74 28.04C65.3096 28.04 64.9355 27.93 64.6109 27.7136L64.3891 28.0464C64.7845 28.31 65.2371 28.44 65.74 28.44V28.04ZM64.6151 27.7164C64.2962 27.4921 64.0228 27.1221 63.8054 26.585L63.4346 26.735C63.6705 27.3179 63.9838 27.7613 64.3849 28.0436L64.6151 27.7164ZM63.8081 26.592L59.2281 13.932L58.8519 14.068L63.4319 26.728L63.8081 26.592ZM59.04 14.2H61.14V13.8H59.04V14.2ZM60.9507 14.0647L65.0107 25.9447L65.3893 25.8153L61.3293 13.9353L60.9507 14.0647ZM65.0151 25.9562C65.1094 26.1854 65.2084 26.3712 65.3186 26.4814L65.6014 26.1986C65.5516 26.1488 65.4772 26.028 65.3849 25.8039L65.0151 25.9562ZM65.3186 26.4814C65.4336 26.5964 65.5768 26.66 65.74 26.66V26.26C65.6898 26.26 65.6464 26.2436 65.6014 26.1986L65.3186 26.4814ZM65.74 26.66C65.9147 26.66 66.0788 26.6058 66.1936 26.468L65.8864 26.212C65.8679 26.2342 65.8319 26.26 65.74 26.26V26.66ZM66.1814 26.4814C66.2916 26.3712 66.3906 26.1854 66.4849 25.9562L66.1151 25.8039C66.0228 26.028 65.9484 26.1488 65.8986 26.1986L66.1814 26.4814ZM66.4889 25.9458L70.6289 14.0658L70.2511 13.9342L66.1111 25.8142L66.4889 25.9458ZM70.44 14.2H72.46V13.8H70.44V14.2ZM72.2719 13.932L67.6919 26.592L68.0681 26.728L72.6481 14.068L72.2719 13.932ZM67.6922 26.5913C67.5024 27.11 67.2375 27.4707 66.9077 27.6945L67.1323 28.0255C67.5492 27.7426 67.8576 27.3033 68.0678 26.7287L67.6922 26.5913ZM66.9077 27.6945C66.5697 27.9239 66.1827 28.04 65.74 28.04V28.44C66.2573 28.44 66.7237 28.3028 67.1323 28.0255L66.9077 27.6945ZM73.9561 28H73.7561V28.2H73.9561V28ZM73.9561 17.8V17.6H73.7561V17.8H73.9561ZM75.8161 17.8H76.0161V17.6H75.8161V17.8ZM75.8161 28V28.2H76.0161V28H75.8161ZM74.0161 15.82L73.8707 15.9577L73.8785 15.9652L74.0161 15.82ZM74.0161 14.08L73.8747 13.9386L74.0161 14.08ZM75.7561 14.08L75.6107 14.2177L75.6185 14.2252L75.7561 14.08ZM75.7561 15.82L75.6147 15.6786L75.7561 15.82ZM74.1561 28V17.8H73.7561V28H74.1561ZM73.9561 18H75.8161V17.6H73.9561V18ZM75.6161 17.8V28H76.0161V17.8H75.6161ZM75.8161 27.8H73.9561V28.2H75.8161V27.8ZM74.8961 15.98C74.6165 15.98 74.3718 15.8814 74.1536 15.6748L73.8785 15.9652C74.1671 16.2386 74.509 16.38 74.8961 16.38V15.98ZM74.1613 15.6825C73.9547 15.4643 73.8561 15.2196 73.8561 14.94H73.4561C73.4561 15.3271 73.5975 15.669 73.8709 15.9575L74.1613 15.6825ZM73.8561 14.94C73.8561 14.6608 73.9543 14.4247 74.1575 14.2214L73.8747 13.9386C73.5979 14.2153 73.4561 14.5525 73.4561 14.94H73.8561ZM74.1575 14.2214C74.3764 14.0025 74.62 13.9 74.8961 13.9V13.5C74.5055 13.5 74.1624 13.6508 73.8747 13.9386L74.1575 14.2214ZM74.8961 13.9C75.1717 13.9 75.4067 14.002 75.6109 14.2175L75.9013 13.9425C75.6255 13.6513 75.2872 13.5 74.8961 13.5V13.9ZM75.6185 14.2252C75.8341 14.4294 75.9361 14.6644 75.9361 14.94H76.3361C76.3361 14.5489 76.1847 14.2106 75.8936 13.9348L75.6185 14.2252ZM75.9361 14.94C75.9361 15.2161 75.8336 15.4597 75.6147 15.6786L75.8975 15.9614C76.1853 15.6737 76.3361 15.3306 76.3361 14.94H75.9361ZM75.6147 15.6786C75.4114 15.8818 75.1753 15.98 74.8961 15.98V16.38C75.2835 16.38 75.6208 16.2382 75.8975 15.9614L75.6147 15.6786ZM80.0617 27.22L79.9185 27.3596L79.9203 27.3614L80.0617 27.22ZM79.3017 15.24V15.04H79.1017V15.24H79.3017ZM81.1417 15.24H81.3417V15.04H81.1417V15.24ZM81.5017 26.04L81.3529 26.174L81.3603 26.1814L81.5017 26.04ZM84.6017 26.42H84.8017V26.22H84.6017V26.42ZM84.6017 28V28.2H84.8017V28H84.6017ZM77.5417 19.38H77.3417V19.58H77.5417V19.38ZM77.5417 17.8V17.6H77.3417V17.8H77.5417ZM84.6417 17.8H84.8417V17.6H84.6417V17.8ZM84.6417 19.38V19.58H84.8417V19.38H84.6417ZM82.2017 27.8C81.335 27.8 80.6773 27.5527 80.2031 27.0786L79.9203 27.3614C80.4862 27.9273 81.2551 28.2 82.2017 28.2V27.8ZM80.205 27.0804C79.7427 26.606 79.5017 25.9539 79.5017 25.1H79.1017C79.1017 26.0328 79.3674 26.794 79.9185 27.3596L80.205 27.0804ZM79.5017 25.1V15.24H79.1017V25.1H79.5017ZM79.3017 15.44H81.1417V15.04H79.3017V15.44ZM80.9417 15.24V24.98H81.3417V15.24H80.9417ZM80.9417 24.98C80.9417 25.4577 81.0729 25.8625 81.3531 26.1738L81.6504 25.9062C81.4505 25.6841 81.3417 25.3823 81.3417 24.98H80.9417ZM81.3603 26.1814C81.6593 26.4805 82.0615 26.62 82.5417 26.62V26.22C82.1419 26.22 81.8508 26.1062 81.6431 25.8986L81.3603 26.1814ZM82.5417 26.62H84.6017V26.22H82.5417V26.62ZM84.4017 26.42V28H84.8017V26.42H84.4017ZM84.6017 27.8H82.2017V28.2H84.6017V27.8ZM77.7417 19.38V17.8H77.3417V19.38H77.7417ZM77.5417 18H84.6417V17.6H77.5417V18ZM84.4417 17.8V19.38H84.8417V17.8H84.4417ZM84.6417 19.18H77.5417V19.58H84.6417V19.18ZM88.2337 27.54L88.1228 27.7064L88.125 27.7078L88.2337 27.54ZM86.5737 25.6L86.3931 25.6859L86.5737 25.6ZM86.6338 20.2L86.8102 20.2941L86.8109 20.2929L86.6338 20.2ZM88.4738 18.28L88.5745 18.4528L88.5766 18.4515L88.4738 18.28ZM94.1338 18.26L94.0304 18.4312L94.1338 18.26ZM95.9137 20.16L95.736 20.2518L95.7373 20.2541L95.9137 20.16ZM96.5537 28V28.2H96.7537V28H96.5537ZM94.6937 28H94.4938V28.2H94.6937V28ZM94.6937 25.92H94.8937V25.72H94.6937V25.92ZM94.6538 25.92V25.72H94.532L94.4761 25.8281L94.6538 25.92ZM93.8338 27.04L93.6897 26.9013L93.6896 26.9014L93.8338 27.04ZM92.5737 27.9L92.4921 27.7174L92.5737 27.9ZM93.0337 26.18L93.1406 26.3491L93.1417 26.3484L93.0337 26.18ZM94.2337 24.82L94.0549 24.7306L94.054 24.7322L94.2337 24.82ZM94.2537 20.96L94.0731 21.046L94.0749 21.0494L94.2537 20.96ZM93.0938 19.64L92.9838 19.8071L92.9869 19.8091L93.0938 19.64ZM89.4538 19.64L89.3458 19.4716L89.3438 19.4729L89.4538 19.64ZM88.2738 21L88.094 20.9122L88.0932 20.914L88.2738 21ZM88.2738 24.82L88.0924 24.9044L88.0932 24.906L88.2738 24.82ZM89.4338 26.16L89.3238 26.3271L89.4338 26.16ZM90.7938 28.04C89.8398 28.04 89.0255 27.8148 88.3425 27.3722L88.125 27.7078C88.882 28.1985 89.7744 28.44 90.7938 28.44V28.04ZM88.3447 27.3736C87.656 26.9145 87.1262 26.2962 86.7544 25.5141L86.3931 25.6859C86.7947 26.5305 87.3715 27.2055 88.1228 27.7064L88.3447 27.3736ZM86.7544 25.5141C86.3816 24.7301 86.1938 23.8598 86.1938 22.9H85.7938C85.7938 23.9135 85.9925 24.8432 86.3931 25.6859L86.7544 25.5141ZM86.1938 22.9C86.1938 21.9294 86.4005 21.0623 86.8102 20.2941L86.4573 20.1059C86.0136 20.9377 85.7938 21.8706 85.7938 22.9H86.1938ZM86.8109 20.2929C87.2199 19.5131 87.8067 18.9007 88.5745 18.4528L88.373 18.1072C87.5408 18.5927 86.9009 19.2602 86.4566 20.1071L86.8109 20.2929ZM88.5766 18.4515C89.3399 17.9936 90.2627 17.76 91.3538 17.76V17.36C90.2048 17.36 89.2076 17.6064 88.3709 18.1085L88.5766 18.4515ZM91.3538 17.76C92.4045 17.76 93.2939 17.9868 94.0304 18.4312L94.2371 18.0888C93.427 17.5999 92.463 17.36 91.3538 17.36V17.76ZM94.0304 18.4312C94.7722 18.8789 95.3398 19.4847 95.7361 20.2518L96.0914 20.0682C95.6611 19.2352 95.042 18.5745 94.2371 18.0888L94.0304 18.4312ZM95.7373 20.2541C96.1472 21.0226 96.3538 21.8832 96.3538 22.84H96.7537C96.7537 21.8235 96.5337 20.8974 96.0902 20.0659L95.7373 20.2541ZM96.3538 22.84V28H96.7537V22.84H96.3538ZM96.5537 27.8H94.6937V28.2H96.5537V27.8ZM94.8937 28V25.92H94.4938V28H94.8937ZM94.6937 25.72H94.6538V26.12H94.6937V25.72ZM94.4761 25.8281C94.2862 26.1953 94.0249 26.5532 93.6897 26.9013L93.9778 27.1787C94.3359 26.8068 94.6213 26.418 94.8314 26.0119L94.4761 25.8281ZM93.6896 26.9014C93.3766 27.2269 92.9789 27.4997 92.4921 27.7174L92.6554 28.0826C93.182 27.847 93.6242 27.5464 93.9779 27.1786L93.6896 26.9014ZM92.4921 27.7174C92.0162 27.9303 91.4518 28.04 90.7938 28.04V28.44C91.4957 28.44 92.118 28.323 92.6554 28.0826L92.4921 27.7174ZM91.2738 26.86C91.9738 26.86 92.5984 26.6915 93.1405 26.3491L92.927 26.0109C92.4558 26.3085 91.907 26.46 91.2738 26.46V26.86ZM93.1417 26.3484C93.6936 25.9946 94.1179 25.5129 94.4135 24.9078L94.054 24.7322C93.7896 25.2738 93.4139 25.6987 92.9258 26.0116L93.1417 26.3484ZM94.4126 24.9094C94.7212 24.2924 94.8737 23.608 94.8737 22.86H94.4738C94.4738 23.552 94.333 24.1743 94.0549 24.7306L94.4126 24.9094ZM94.8737 22.86C94.8737 22.1263 94.7282 21.4617 94.4326 20.8706L94.0749 21.0494C94.3393 21.5783 94.4738 22.1804 94.4738 22.86H94.8737ZM94.4343 20.874C94.152 20.2812 93.7403 19.8118 93.2006 19.4709L92.9869 19.8091C93.4605 20.1082 93.8222 20.5188 94.0732 21.046L94.4343 20.874ZM93.2037 19.4729C92.6605 19.1156 92.0279 18.94 91.3138 18.94V19.34C91.9596 19.34 92.5137 19.4978 92.9838 19.8071L93.2037 19.4729ZM91.3138 18.94C90.562 18.94 89.9031 19.1144 89.3458 19.4716L89.5617 19.8084C90.0444 19.4989 90.6255 19.34 91.3138 19.34V18.94ZM89.3438 19.4729C88.8056 19.827 88.3889 20.3084 88.094 20.9122L88.4535 21.0878C88.7186 20.5449 89.0885 20.1197 89.5637 19.8071L89.3438 19.4729ZM88.0932 20.914C87.8118 21.5049 87.6737 22.175 87.6737 22.92H88.0737C88.0737 22.225 88.2023 21.6151 88.4543 21.086L88.0932 20.914ZM87.6737 22.92C87.6737 23.6396 87.8123 24.3021 88.0924 24.9043L88.4551 24.7357C88.2019 24.1912 88.0737 23.587 88.0737 22.92H87.6737ZM88.0932 24.906C88.3752 25.4982 88.7859 25.9732 89.3238 26.3271L89.5437 25.9929C89.0682 25.6801 88.7057 25.2618 88.4543 24.734L88.0932 24.906ZM89.3238 26.3271C89.8688 26.6856 90.5221 26.86 91.2738 26.86V26.46C90.5854 26.46 90.012 26.301 89.5437 25.9929L89.3238 26.3271ZM102.863 27.46L102.785 27.6441L102.788 27.6451L102.863 27.46ZM100.583 25.94L100.441 26.0799L100.442 26.0814L100.583 25.94ZM99.1234 23.72L98.9371 23.7928L98.9386 23.7963L99.1234 23.72ZM99.1234 18.3L98.9381 18.2247L98.9375 18.2262L99.1234 18.3ZM100.583 16.06L100.442 15.9186L100.441 15.9201L100.583 16.06ZM102.863 14.56L102.939 14.7451L102.942 14.7441L102.863 14.56ZM107.583 14H107.783V13.8H107.583V14ZM107.583 15.7V15.9H107.783V15.7H107.583ZM102.063 17.22L101.922 17.0786L101.92 17.0806L102.063 17.22ZM100.963 18.9L100.779 18.8231L100.963 18.9ZM100.963 23.1L100.778 23.1756L100.779 23.1769L100.963 23.1ZM102.063 24.78L101.92 24.9194L101.922 24.9214L102.063 24.78ZM103.743 25.9L103.82 25.7154L103.743 25.9ZM107.583 26.3H107.783V26.1H107.583V26.3ZM107.583 28V28.2H107.783V28H107.583ZM105.783 27.8C104.74 27.8 103.792 27.6239 102.939 27.2749L102.788 27.6451C103.695 28.0161 104.694 28.2 105.783 28.2V27.8ZM102.942 27.2759C102.084 26.912 101.346 26.4194 100.725 25.7986L100.442 26.0814C101.101 26.7406 101.883 27.2613 102.785 27.6441L102.942 27.2759ZM100.726 25.8001C100.118 25.1787 99.6453 24.4604 99.3083 23.6437L98.9386 23.7963C99.2949 24.6596 99.7957 25.4213 100.441 26.0799L100.726 25.8001ZM99.3097 23.6472C98.9859 22.8182 98.8234 21.9363 98.8234 21H98.4234C98.4234 21.9837 98.5943 22.9151 98.9371 23.7928L99.3097 23.6472ZM98.8234 21C98.8234 20.0637 98.9859 19.1889 99.3093 18.3738L98.9375 18.2262C98.5943 19.0911 98.4234 20.0163 98.4234 21H98.8234ZM99.3087 18.3753C99.6459 17.5453 100.118 16.8208 100.726 16.1999L100.441 15.9201C99.7952 16.5792 99.2943 17.348 98.9381 18.2247L99.3087 18.3753ZM100.725 16.2014C101.345 15.5811 102.082 15.0956 102.939 14.7451L102.788 14.3749C101.884 14.7444 101.102 15.2589 100.442 15.9186L100.725 16.2014ZM102.942 14.7441C103.794 14.3824 104.74 14.2 105.783 14.2V13.8C104.693 13.8 103.693 13.9909 102.785 14.3759L102.942 14.7441ZM105.783 14.2H107.583V13.8H105.783V14.2ZM107.383 14V15.7H107.783V14H107.383ZM107.583 15.5H105.843V15.9H107.583V15.5ZM105.843 15.5C105.06 15.5 104.333 15.6376 103.667 15.9154L103.82 16.2846C104.434 16.029 105.107 15.9 105.843 15.9V15.5ZM103.667 15.9154C103.003 16.1919 102.421 16.5797 101.922 17.0786L102.205 17.3614C102.666 16.9003 103.204 16.5415 103.82 16.2846L103.667 15.9154ZM101.92 17.0806C101.435 17.5793 101.055 18.1607 100.779 18.8231L101.148 18.9769C101.405 18.3593 101.758 17.8207 102.207 17.3594L101.92 17.0806ZM100.779 18.8231C100.501 19.4897 100.363 20.2161 100.363 21H100.763C100.763 20.2639 100.892 19.5903 101.148 18.9769L100.779 18.8231ZM100.363 21C100.363 21.7711 100.501 22.4969 100.778 23.1756L101.149 23.0244C100.892 22.3965 100.763 21.7223 100.763 21H100.363ZM100.779 23.1769C101.055 23.8393 101.435 24.4207 101.92 24.9194L102.207 24.6406C101.758 24.1793 101.405 23.6407 101.148 23.0231L100.779 23.1769ZM101.922 24.9214C102.421 25.4203 103.003 25.8081 103.667 26.0846L103.82 25.7154C103.204 25.4585 102.666 25.0997 102.205 24.6386L101.922 24.9214ZM103.667 26.0846C104.333 26.3624 105.06 26.5 105.843 26.5V26.1C105.107 26.1 104.434 25.971 103.82 25.7154L103.667 26.0846ZM105.843 26.5H107.583V26.1H105.843V26.5ZM107.383 26.3V28H107.783V26.3H107.383ZM107.583 27.8H105.783V28.2H107.583V27.8ZM111.437 27.54L111.326 27.7064L111.328 27.7078L111.437 27.54ZM109.777 25.6L109.596 25.6859L109.777 25.6ZM109.837 20.2L110.013 20.2941L110.014 20.2929L109.837 20.2ZM111.677 18.28L111.778 18.4528L111.78 18.4515L111.677 18.28ZM117.337 18.26L117.234 18.4312L117.337 18.26ZM119.117 20.16L118.939 20.2518L118.94 20.2541L119.117 20.16ZM119.757 28V28.2H119.957V28H119.757ZM117.897 28H117.697V28.2H117.897V28ZM117.897 25.92H118.097V25.72H117.897V25.92ZM117.857 25.92V25.72H117.735L117.679 25.8281L117.857 25.92ZM117.037 27.04L116.893 26.9013L116.893 26.9014L117.037 27.04ZM115.777 27.9L115.695 27.7174L115.777 27.9ZM116.237 26.18L116.344 26.3491L116.345 26.3484L116.237 26.18ZM117.437 24.82L117.258 24.7306L117.257 24.7322L117.437 24.82ZM117.457 20.96L117.276 21.046L117.278 21.0494L117.457 20.96ZM116.297 19.64L116.187 19.8071L116.19 19.8091L116.297 19.64ZM112.657 19.64L112.549 19.4716L112.547 19.4729L112.657 19.64ZM111.477 21L111.297 20.9122L111.296 20.914L111.477 21ZM111.477 24.82L111.296 24.9044L111.296 24.906L111.477 24.82ZM112.637 26.16L112.527 26.3271L112.637 26.16ZM113.997 28.04C113.043 28.04 112.229 27.8148 111.546 27.3722L111.328 27.7078C112.085 28.1985 112.978 28.44 113.997 28.44V28.04ZM111.548 27.3736C110.859 26.9145 110.329 26.2962 109.958 25.5141L109.596 25.6859C109.998 26.5305 110.575 27.2055 111.326 27.7064L111.548 27.3736ZM109.958 25.5141C109.585 24.7301 109.397 23.8598 109.397 22.9H108.997C108.997 23.9135 109.196 24.8432 109.596 25.6859L109.958 25.5141ZM109.397 22.9C109.397 21.9294 109.604 21.0623 110.013 20.2941L109.66 20.1059C109.217 20.9377 108.997 21.8706 108.997 22.9H109.397ZM110.014 20.2929C110.423 19.5131 111.01 18.9007 111.778 18.4528L111.576 18.1072C110.744 18.5927 110.104 19.2602 109.66 20.1071L110.014 20.2929ZM111.78 18.4515C112.543 17.9936 113.466 17.76 114.557 17.76V17.36C113.408 17.36 112.411 17.6064 111.574 18.1085L111.78 18.4515ZM114.557 17.76C115.608 17.76 116.497 17.9868 117.234 18.4312L117.44 18.0888C116.63 17.5999 115.666 17.36 114.557 17.36V17.76ZM117.234 18.4312C117.975 18.8789 118.543 19.4847 118.939 20.2518L119.295 20.0682C118.864 19.2352 118.245 18.5745 117.44 18.0888L117.234 18.4312ZM118.94 20.2541C119.35 21.0226 119.557 21.8832 119.557 22.84H119.957C119.957 21.8235 119.737 20.8974 119.293 20.0659L118.94 20.2541ZM119.557 22.84V28H119.957V22.84H119.557ZM119.757 27.8H117.897V28.2H119.757V27.8ZM118.097 28V25.92H117.697V28H118.097ZM117.897 25.72H117.857V26.12H117.897V25.72ZM117.679 25.8281C117.489 26.1953 117.228 26.5532 116.893 26.9013L117.181 27.1787C117.539 26.8068 117.824 26.418 118.035 26.0119L117.679 25.8281ZM116.893 26.9014C116.58 27.2269 116.182 27.4997 115.695 27.7174L115.859 28.0826C116.385 27.847 116.827 27.5464 117.181 27.1786L116.893 26.9014ZM115.695 27.7174C115.219 27.9303 114.655 28.04 113.997 28.04V28.44C114.699 28.44 115.321 28.323 115.859 28.0826L115.695 27.7174ZM114.477 26.86C115.177 26.86 115.802 26.6915 116.344 26.3491L116.13 26.0109C115.659 26.3085 115.11 26.46 114.477 26.46V26.86ZM116.345 26.3484C116.897 25.9946 117.321 25.5129 117.617 24.9078L117.257 24.7322C116.993 25.2738 116.617 25.6987 116.129 26.0116L116.345 26.3484ZM117.616 24.9094C117.924 24.2924 118.077 23.608 118.077 22.86H117.677C117.677 23.552 117.536 24.1743 117.258 24.7306L117.616 24.9094ZM118.077 22.86C118.077 22.1263 117.931 21.4617 117.636 20.8706L117.278 21.0494C117.542 21.5783 117.677 22.1804 117.677 22.86H118.077ZM117.637 20.874C117.355 20.2812 116.943 19.8118 116.404 19.4709L116.19 19.8091C116.664 20.1082 117.025 20.5188 117.276 21.046L117.637 20.874ZM116.407 19.4729C115.864 19.1156 115.231 18.94 114.517 18.94V19.34C115.163 19.34 115.717 19.4978 116.187 19.8071L116.407 19.4729ZM114.517 18.94C113.765 18.94 113.106 19.1144 112.549 19.4716L112.765 19.8084C113.248 19.4989 113.829 19.34 114.517 19.34V18.94ZM112.547 19.4729C112.009 19.827 111.592 20.3084 111.297 20.9122L111.657 21.0878C111.922 20.5449 112.292 20.1197 112.767 19.8071L112.547 19.4729ZM111.296 20.914C111.015 21.5049 110.877 22.175 110.877 22.92H111.277C111.277 22.225 111.405 21.6151 111.657 21.086L111.296 20.914ZM110.877 22.92C110.877 23.6396 111.015 24.3021 111.296 24.9043L111.658 24.7357C111.405 24.1912 111.277 23.587 111.277 22.92H110.877ZM111.296 24.906C111.578 25.4982 111.989 25.9732 112.527 26.3271L112.747 25.9929C112.271 25.6801 111.909 25.2618 111.657 24.734L111.296 24.906ZM112.527 26.3271C113.072 26.6856 113.725 26.86 114.477 26.86V26.46C113.789 26.46 113.215 26.301 112.747 25.9929L112.527 26.3271ZM122.687 28H122.487V28.2H122.687V28ZM122.687 13.4V13.2H122.487V13.4H122.687ZM124.527 13.4H124.727V13.2H124.527V13.4ZM124.527 28V28.2H124.727V28H124.527ZM122.887 28V13.4H122.487V28H122.887ZM122.687 13.6H124.527V13.2H122.687V13.6ZM124.327 13.4V28H124.727V13.4H124.327ZM124.527 27.8H122.687V28.2H124.527V27.8Z" fill="#D9D9D9" mask="url(#path-5-outside-1_108_230)"/>
<defs>
<filter id="filter0_dddd_108_230" x="-4.39453" y="0.605241" width="64.5718" height="64.7895" filterUnits="userSpaceOnUse" color-interpolation-filters="sRGB">
<feFlood flood-opacity="0" result="BackgroundImageFix"/>
<feColorMatrix in="SourceAlpha" type="matrix" values="0 0 0 0 0 0 0 0 0 0 0 0 0 0 0 0 0 0 127 0" result="hardAlpha"/>
<feOffset dx="-1" dy="1"/>
<feGaussianBlur stdDeviation="2"/>
<feColorMatrix type="matrix" values="0 0 0 0 0 0 0 0 0 0 0 0 0 0 0 0 0 0 0.1 0"/>
<feBlend mode="normal" in2="BackgroundImageFix" result="effect1_dropShadow_108_230"/>
<feColorMatrix in="SourceAlpha" type="matrix" values="0 0 0 0 0 0 0 0 0 0 0 0 0 0 0 0 0 0 127 0" result="hardAlpha"/>
<feOffset dx="-6" dy="5"/>
<feGaussianBlur stdDeviation="4"/>
<feColorMatrix type="matrix" values="0 0 0 0 0 0 0 0 0 0 0 0 0 0 0 0 0 0 0.09 0"/>
<feBlend mode="normal" in2="effect1_dropShadow_108_230" result="effect2_dropShadow_108_230"/>
<feColorMatrix in="SourceAlpha" type="matrix" values="0 0 0 0 0 0 0 0 0 0 0 0 0 0 0 0 0 0 127 0" result="hardAlpha"/>
<feOffset dx="-13" dy="12"/>
<feGaussianBlur stdDeviation="5.5"/>
<feColorMatrix type="matrix" values="0 0 0 0 0 0 0 0 0 0 0 0 0 0 0 0 0 0 0.05 0"/>
<feBlend mode="normal" in2="effect2_dropShadow_108_230" result="effect3_dropShadow_108_230"/>
<feColorMatrix in="SourceAlpha" type="matrix" values="0 0 0 0 0 0 0 0 0 0 0 0 0 0 0 0 0 0 127 0" result="hardAlpha"/>
<feOffset dx="-22" dy="22"/>
<feGaussianBlur stdDeviation="6.5"/>
<feColorMatrix type="matrix" values="0 0 0 0 0 0 0 0 0 0 0 0 0 0 0 0 0 0 0.01 0"/>
<feBlend mode="normal" in2="effect3_dropShadow_108_230" result="effect4_dropShadow_108_230"/>
<feBlend mode="normal" in="SourceGraphic" in2="effect4_dropShadow_108_230" result="shape"/>
</filter>
<linearGradient id="paint0_linear_108_230" x1="92.5" y1="5" x2="92.5" y2="37" gradientUnits="userSpaceOnUse">
<stop stop-color="#2E7D32"/>
<stop offset="1" stop-color="#F5E6CA"/>
</linearGradient>
</defs>
</svg>
