<svg width="124" height="188" viewBox="0 0 124 188" fill="none" xmlns="http://www.w3.org/2000/svg">
<rect x="98.4399" y="32.1289" width="32.5275" height="92.9719" rx="16.2638" transform="rotate(40 98.4399 32.1289)" fill="#2E7D32"/>
<rect y="53.0372" width="32.5275" height="92.9719" rx="16.2638" transform="rotate(-40 0 53.0372)" fill="#F5E6CA" fill-opacity="0.5"/>
<mask id="mask0_24_15" style="mask-type:alpha" maskUnits="userSpaceOnUse" x="6" y="6" width="73" height="80">
<path d="M10.4541 58.7619C4.68048 65.6426 5.57798 75.9011 12.4588 81.6748C19.3396 87.4484 29.598 86.5509 35.3717 79.6702L74.2246 33.3671C79.9983 26.4863 79.1008 16.2278 72.22 10.4541C65.3392 4.68048 55.0807 5.57798 49.3071 12.4588L10.4541 58.7619Z" fill="#D7A86E"/>
</mask>
<g mask="url(#mask0_24_15)">
<path d="M88.3964 79.0002C94.17 85.881 104.428 86.7785 111.309 81.0048C118.19 75.2312 119.088 64.9727 113.314 58.0919L74.461 11.7888C68.6873 4.90805 58.4289 4.01055 51.5481 9.78422C44.6673 15.5579 43.7698 25.8164 49.5435 32.6971L88.3964 79.0002Z" fill="#D7A86E"/>
</g>
<mask id="path-5-outside-1_24_15" maskUnits="userSpaceOnUse" x="5" y="148.258" width="110" height="26" fill="black">
<rect fill="white" x="5" y="148.258" width="110" height="26"/>
<path d="M17.121 173.654C16.351 173.654 15.669 173.456 15.075 173.06C14.481 172.642 13.997 171.971 13.623 171.047L6.066 150.158H9.531L16.23 169.76C16.384 170.134 16.527 170.387 16.659 170.519C16.791 170.651 16.945 170.717 17.121 170.717C17.341 170.717 17.506 170.651 17.616 170.519C17.748 170.387 17.891 170.134 18.045 169.76L24.876 150.158H28.209L20.652 171.047C20.322 171.949 19.849 172.609 19.233 173.027C18.617 173.445 17.913 173.654 17.121 173.654ZM30.6776 173.258V156.428H33.7466V173.258H30.6776ZM32.2286 153.755C31.6786 153.755 31.1946 153.557 30.7766 153.161C30.3806 152.743 30.1826 152.259 30.1826 151.709C30.1826 151.159 30.3806 150.686 30.7766 150.29C31.1946 149.872 31.6786 149.663 32.2286 149.663C32.7786 149.663 33.2516 149.872 33.6476 150.29C34.0656 150.686 34.2746 151.159 34.2746 151.709C34.2746 152.259 34.0656 152.743 33.6476 153.161C33.2516 153.557 32.7786 153.755 32.2286 153.755ZM44.2828 173.258C42.7868 173.258 41.6098 172.829 40.7518 171.971C39.9158 171.113 39.4978 169.947 39.4978 168.473V152.204H42.5338V168.275C42.5338 169.001 42.7318 169.584 43.1278 170.024C43.5458 170.442 44.1178 170.651 44.8438 170.651H48.2428V173.258H44.2828ZM36.5938 159.035V156.428H48.3088V159.035H36.5938ZM58.4597 173.654C56.8317 173.654 55.4237 173.269 54.2357 172.499C53.0477 171.707 52.1347 170.64 51.4967 169.298C50.8587 167.956 50.5397 166.471 50.5397 164.843C50.5397 163.193 50.8917 161.708 51.5957 160.388C52.2997 159.046 53.3117 157.99 54.6317 157.22C55.9517 156.428 57.5357 156.032 59.3837 156.032C61.1657 156.032 62.6947 156.417 63.9707 157.187C65.2467 157.957 66.2257 159.002 66.9077 160.322C67.6117 161.642 67.9637 163.116 67.9637 164.744V173.258H64.8947V169.826H64.8287C64.4987 170.464 64.0477 171.08 63.4757 171.674C62.9257 172.246 62.2327 172.719 61.3967 173.093C60.5607 173.467 59.5817 173.654 58.4597 173.654ZM59.2517 171.047C60.3517 171.047 61.3197 170.783 62.1557 170.255C63.0137 169.705 63.6737 168.957 64.1357 168.011C64.6197 167.043 64.8617 165.965 64.8617 164.777C64.8617 163.611 64.6307 162.566 64.1687 161.642C63.7287 160.718 63.0907 159.992 62.2547 159.464C61.4187 158.914 60.4397 158.639 59.3177 158.639C58.1297 158.639 57.1067 158.914 56.2487 159.464C55.4127 160.014 54.7637 160.762 54.3017 161.708C53.8617 162.632 53.6417 163.688 53.6417 164.876C53.6417 166.02 53.8617 167.065 54.3017 168.011C54.7417 168.935 55.3797 169.672 56.2157 170.222C57.0517 170.772 58.0637 171.047 59.2517 171.047Z"/>
<path d="M83.1927 173.258C81.4327 173.258 79.8267 172.961 78.3747 172.367C76.9227 171.751 75.6687 170.915 74.6127 169.859C73.5787 168.803 72.7757 167.582 72.2037 166.196C71.6537 164.788 71.3787 163.292 71.3787 161.708C71.3787 160.124 71.6537 158.639 72.2037 157.253C72.7757 155.845 73.5787 154.613 74.6127 153.557C75.6687 152.501 76.9227 151.676 78.3747 151.082C79.8267 150.466 81.4327 150.158 83.1927 150.158H86.1627V152.963H83.2917C82.0377 152.963 80.8827 153.183 79.8267 153.623C78.7707 154.063 77.8467 154.679 77.0547 155.471C76.2847 156.263 75.6797 157.187 75.2397 158.243C74.7997 159.299 74.5797 160.454 74.5797 161.708C74.5797 162.94 74.7997 164.095 75.2397 165.173C75.6797 166.229 76.2847 167.153 77.0547 167.945C77.8467 168.737 78.7707 169.353 79.8267 169.793C80.8827 170.233 82.0377 170.453 83.2917 170.453H86.1627V173.258H83.1927ZM96.7448 173.654C95.1168 173.654 93.7088 173.269 92.5208 172.499C91.3328 171.707 90.4198 170.64 89.7818 169.298C89.1438 167.956 88.8248 166.471 88.8248 164.843C88.8248 163.193 89.1768 161.708 89.8808 160.388C90.5848 159.046 91.5968 157.99 92.9168 157.22C94.2368 156.428 95.8208 156.032 97.6688 156.032C99.4508 156.032 100.98 156.417 102.256 157.187C103.532 157.957 104.511 159.002 105.193 160.322C105.897 161.642 106.249 163.116 106.249 164.744V173.258H103.18V169.826H103.114C102.784 170.464 102.333 171.08 101.761 171.674C101.211 172.246 100.518 172.719 99.6818 173.093C98.8458 173.467 97.8668 173.654 96.7448 173.654ZM97.5368 171.047C98.6368 171.047 99.6048 170.783 100.441 170.255C101.299 169.705 101.959 168.957 102.421 168.011C102.905 167.043 103.147 165.965 103.147 164.777C103.147 163.611 102.916 162.566 102.454 161.642C102.014 160.718 101.376 159.992 100.54 159.464C99.7038 158.914 98.7248 158.639 97.6028 158.639C96.4148 158.639 95.3918 158.914 94.5338 159.464C93.6978 160.014 93.0488 160.762 92.5868 161.708C92.1468 162.632 91.9268 163.688 91.9268 164.876C91.9268 166.02 92.1468 167.065 92.5868 168.011C93.0268 168.935 93.6648 169.672 94.5008 170.222C95.3368 170.772 96.3488 171.047 97.5368 171.047ZM111.083 173.258V149.168H114.119V173.258H111.083Z"/>
</mask>
<path d="M17.121 173.654C16.351 173.654 15.669 173.456 15.075 173.06C14.481 172.642 13.997 171.971 13.623 171.047L6.066 150.158H9.531L16.23 169.76C16.384 170.134 16.527 170.387 16.659 170.519C16.791 170.651 16.945 170.717 17.121 170.717C17.341 170.717 17.506 170.651 17.616 170.519C17.748 170.387 17.891 170.134 18.045 169.76L24.876 150.158H28.209L20.652 171.047C20.322 171.949 19.849 172.609 19.233 173.027C18.617 173.445 17.913 173.654 17.121 173.654ZM30.6776 173.258V156.428H33.7466V173.258H30.6776ZM32.2286 153.755C31.6786 153.755 31.1946 153.557 30.7766 153.161C30.3806 152.743 30.1826 152.259 30.1826 151.709C30.1826 151.159 30.3806 150.686 30.7766 150.29C31.1946 149.872 31.6786 149.663 32.2286 149.663C32.7786 149.663 33.2516 149.872 33.6476 150.29C34.0656 150.686 34.2746 151.159 34.2746 151.709C34.2746 152.259 34.0656 152.743 33.6476 153.161C33.2516 153.557 32.7786 153.755 32.2286 153.755ZM44.2828 173.258C42.7868 173.258 41.6098 172.829 40.7518 171.971C39.9158 171.113 39.4978 169.947 39.4978 168.473V152.204H42.5338V168.275C42.5338 169.001 42.7318 169.584 43.1278 170.024C43.5458 170.442 44.1178 170.651 44.8438 170.651H48.2428V173.258H44.2828ZM36.5938 159.035V156.428H48.3088V159.035H36.5938ZM58.4597 173.654C56.8317 173.654 55.4237 173.269 54.2357 172.499C53.0477 171.707 52.1347 170.64 51.4967 169.298C50.8587 167.956 50.5397 166.471 50.5397 164.843C50.5397 163.193 50.8917 161.708 51.5957 160.388C52.2997 159.046 53.3117 157.99 54.6317 157.22C55.9517 156.428 57.5357 156.032 59.3837 156.032C61.1657 156.032 62.6947 156.417 63.9707 157.187C65.2467 157.957 66.2257 159.002 66.9077 160.322C67.6117 161.642 67.9637 163.116 67.9637 164.744V173.258H64.8947V169.826H64.8287C64.4987 170.464 64.0477 171.08 63.4757 171.674C62.9257 172.246 62.2327 172.719 61.3967 173.093C60.5607 173.467 59.5817 173.654 58.4597 173.654ZM59.2517 171.047C60.3517 171.047 61.3197 170.783 62.1557 170.255C63.0137 169.705 63.6737 168.957 64.1357 168.011C64.6197 167.043 64.8617 165.965 64.8617 164.777C64.8617 163.611 64.6307 162.566 64.1687 161.642C63.7287 160.718 63.0907 159.992 62.2547 159.464C61.4187 158.914 60.4397 158.639 59.3177 158.639C58.1297 158.639 57.1067 158.914 56.2487 159.464C55.4127 160.014 54.7637 160.762 54.3017 161.708C53.8617 162.632 53.6417 163.688 53.6417 164.876C53.6417 166.02 53.8617 167.065 54.3017 168.011C54.7417 168.935 55.3797 169.672 56.2157 170.222C57.0517 170.772 58.0637 171.047 59.2517 171.047Z" fill="#2E7D32"/>
<path d="M83.1927 173.258C81.4327 173.258 79.8267 172.961 78.3747 172.367C76.9227 171.751 75.6687 170.915 74.6127 169.859C73.5787 168.803 72.7757 167.582 72.2037 166.196C71.6537 164.788 71.3787 163.292 71.3787 161.708C71.3787 160.124 71.6537 158.639 72.2037 157.253C72.7757 155.845 73.5787 154.613 74.6127 153.557C75.6687 152.501 76.9227 151.676 78.3747 151.082C79.8267 150.466 81.4327 150.158 83.1927 150.158H86.1627V152.963H83.2917C82.0377 152.963 80.8827 153.183 79.8267 153.623C78.7707 154.063 77.8467 154.679 77.0547 155.471C76.2847 156.263 75.6797 157.187 75.2397 158.243C74.7997 159.299 74.5797 160.454 74.5797 161.708C74.5797 162.94 74.7997 164.095 75.2397 165.173C75.6797 166.229 76.2847 167.153 77.0547 167.945C77.8467 168.737 78.7707 169.353 79.8267 169.793C80.8827 170.233 82.0377 170.453 83.2917 170.453H86.1627V173.258H83.1927ZM96.7448 173.654C95.1168 173.654 93.7088 173.269 92.5208 172.499C91.3328 171.707 90.4198 170.64 89.7818 169.298C89.1438 167.956 88.8248 166.471 88.8248 164.843C88.8248 163.193 89.1768 161.708 89.8808 160.388C90.5848 159.046 91.5968 157.99 92.9168 157.22C94.2368 156.428 95.8208 156.032 97.6688 156.032C99.4508 156.032 100.98 156.417 102.256 157.187C103.532 157.957 104.511 159.002 105.193 160.322C105.897 161.642 106.249 163.116 106.249 164.744V173.258H103.18V169.826H103.114C102.784 170.464 102.333 171.08 101.761 171.674C101.211 172.246 100.518 172.719 99.6818 173.093C98.8458 173.467 97.8668 173.654 96.7448 173.654ZM97.5368 171.047C98.6368 171.047 99.6048 170.783 100.441 170.255C101.299 169.705 101.959 168.957 102.421 168.011C102.905 167.043 103.147 165.965 103.147 164.777C103.147 163.611 102.916 162.566 102.454 161.642C102.014 160.718 101.376 159.992 100.54 159.464C99.7038 158.914 98.7248 158.639 97.6028 158.639C96.4148 158.639 95.3918 158.914 94.5338 159.464C93.6978 160.014 93.0488 160.762 92.5868 161.708C92.1468 162.632 91.9268 163.688 91.9268 164.876C91.9268 166.02 92.1468 167.065 92.5868 168.011C93.0268 168.935 93.6648 169.672 94.5008 170.222C95.3368 170.772 96.3488 171.047 97.5368 171.047ZM111.083 173.258V149.168H114.119V173.258H111.083Z" fill="#D7A86E"/>
<path d="M15.075 173.06L15.0174 173.142L15.0195 173.143L15.075 173.06ZM13.623 171.047L13.5289 171.081L13.5303 171.084L13.623 171.047ZM6.066 150.158V150.058H5.92348L5.97196 150.192L6.066 150.158ZM9.531 150.158L9.62563 150.126L9.6025 150.058H9.531V150.158ZM16.23 169.76L16.1352 169.792L16.1375 169.798L16.23 169.76ZM17.616 170.519L17.545 170.448L17.5392 170.455L17.616 170.519ZM18.045 169.76L18.1376 169.798L18.1394 169.793L18.045 169.76ZM24.876 150.158V150.058H24.805L24.7816 150.125L24.876 150.158ZM28.209 150.158L28.303 150.192L28.3515 150.058H28.209V150.158ZM20.652 171.047L20.7459 171.081L20.746 171.081L20.652 171.047ZM17.121 173.554C16.3691 173.554 15.7067 173.361 15.1305 172.977L15.0195 173.143C15.6313 173.551 16.3329 173.754 17.121 173.754V173.554ZM15.1325 172.978C14.5591 172.575 14.0851 171.922 13.7157 171.009L13.5303 171.084C13.9089 172.02 14.4029 172.709 15.0175 173.142L15.1325 172.978ZM13.717 171.013L6.16004 150.124L5.97196 150.192L13.529 171.081L13.717 171.013ZM6.066 150.258H9.531V150.058H6.066V150.258ZM9.43637 150.19L16.1354 169.792L16.3246 169.728L9.62563 150.126L9.43637 150.19ZM16.1375 169.798C16.2921 170.173 16.4412 170.442 16.5883 170.59L16.7297 170.448C16.6128 170.331 16.4759 170.095 16.3225 169.722L16.1375 169.798ZM16.5883 170.59C16.7378 170.739 16.9167 170.817 17.121 170.817V170.617C16.9733 170.617 16.8442 170.563 16.7297 170.448L16.5883 170.59ZM17.121 170.817C17.3617 170.817 17.5587 170.744 17.6928 170.583L17.5392 170.455C17.4533 170.558 17.3203 170.617 17.121 170.617V170.817ZM17.6867 170.59C17.8338 170.442 17.9829 170.173 18.1375 169.798L17.9525 169.722C17.7991 170.095 17.6622 170.331 17.5453 170.448L17.6867 170.59ZM18.1394 169.793L24.9704 150.191L24.7816 150.125L17.9506 169.727L18.1394 169.793ZM24.876 150.258H28.209V150.058H24.876V150.258ZM28.115 150.124L20.558 171.013L20.746 171.081L28.303 150.192L28.115 150.124ZM20.5581 171.013C20.2332 171.901 19.7711 172.541 19.1769 172.944L19.2892 173.11C19.9269 172.677 20.4108 171.997 20.7459 171.081L20.5581 171.013ZM19.1769 172.944C18.5785 173.35 17.8943 173.554 17.121 173.554V173.754C17.9317 173.754 18.6555 173.54 19.2892 173.11L19.1769 172.944ZM30.6776 173.258H30.5776V173.358H30.6776V173.258ZM30.6776 156.428V156.328H30.5776V156.428H30.6776ZM33.7466 156.428H33.8466V156.328H33.7466V156.428ZM33.7466 173.258V173.358H33.8466V173.258H33.7466ZM30.7766 153.161L30.7039 153.23L30.7078 153.233L30.7766 153.161ZM30.7766 150.29L30.7058 150.219L30.7766 150.29ZM33.6476 150.29L33.5749 150.359L33.5788 150.362L33.6476 150.29ZM33.6476 153.161L33.5768 153.09L33.6476 153.161ZM30.7776 173.258V156.428H30.5776V173.258H30.7776ZM30.6776 156.528H33.7466V156.328H30.6776V156.528ZM33.6466 156.428V173.258H33.8466V156.428H33.6466ZM33.7466 173.158H30.6776V173.358H33.7466V173.158ZM32.2286 153.655C31.7054 153.655 31.2457 153.468 30.8453 153.088L30.7078 153.233C31.1434 153.646 31.6517 153.855 32.2286 153.855V153.655ZM30.8491 153.092C30.4698 152.692 30.2826 152.232 30.2826 151.709H30.0826C30.0826 152.286 30.2913 152.794 30.704 153.23L30.8491 153.092ZM30.2826 151.709C30.2826 151.186 30.4696 150.738 30.8473 150.361L30.7058 150.219C30.2915 150.634 30.0826 151.132 30.0826 151.709H30.2826ZM30.8473 150.361C31.2481 149.96 31.7072 149.763 32.2286 149.763V149.563C31.6499 149.563 31.141 149.784 30.7058 150.219L30.8473 150.361ZM32.2286 149.763C32.7497 149.763 33.1968 149.96 33.575 150.359L33.7201 150.221C33.3063 149.784 32.8074 149.563 32.2286 149.563V149.763ZM33.5788 150.362C33.9779 150.741 34.1746 151.188 34.1746 151.709H34.3746C34.3746 151.13 34.1532 150.631 33.7163 150.217L33.5788 150.362ZM34.1746 151.709C34.1746 152.23 33.9776 152.689 33.5768 153.09L33.7183 153.232C34.1535 152.796 34.3746 152.288 34.3746 151.709H34.1746ZM33.5768 153.09C33.1992 153.468 32.7515 153.655 32.2286 153.655V153.855C32.8056 153.855 33.3039 153.646 33.7183 153.232L33.5768 153.09ZM40.7518 171.971L40.6802 172.041L40.6811 172.042L40.7518 171.971ZM39.4978 152.204V152.104H39.3978V152.204H39.4978ZM42.5338 152.204H42.6338V152.104H42.5338V152.204ZM43.1278 170.024L43.0534 170.091L43.0571 170.095L43.1278 170.024ZM48.2428 170.651H48.3428V170.551H48.2428V170.651ZM48.2428 173.258V173.358H48.3428V173.258H48.2428ZM36.5938 159.035H36.4938V159.135H36.5938V159.035ZM36.5938 156.428V156.328H36.4938V156.428H36.5938ZM48.3088 156.428H48.4088V156.328H48.3088V156.428ZM48.3088 159.035V159.135H48.4088V159.035H48.3088ZM44.2828 173.158C42.8068 173.158 41.6576 172.735 40.8225 171.9L40.6811 172.042C41.5621 172.923 42.7669 173.358 44.2828 173.358V173.158ZM40.8235 171.901C40.0097 171.066 39.5978 169.927 39.5978 168.473H39.3978C39.3978 169.967 39.822 171.16 40.6802 172.041L40.8235 171.901ZM39.5978 168.473V152.204H39.3978V168.473H39.5978ZM39.4978 152.304H42.5338V152.104H39.4978V152.304ZM42.4338 152.204V168.275H42.6338V152.204H42.4338ZM42.4338 168.275C42.4338 169.02 42.6374 169.628 43.0535 170.091L43.2022 169.957C42.8262 169.539 42.6338 168.982 42.6338 168.275H42.4338ZM43.0571 170.095C43.498 170.535 44.0977 170.751 44.8438 170.751V170.551C44.1379 170.551 43.5937 170.348 43.1985 169.953L43.0571 170.095ZM44.8438 170.751H48.2428V170.551H44.8438V170.751ZM48.1428 170.651V173.258H48.3428V170.651H48.1428ZM48.2428 173.158H44.2828V173.358H48.2428V173.158ZM36.6938 159.035V156.428H36.4938V159.035H36.6938ZM36.5938 156.528H48.3088V156.328H36.5938V156.528ZM48.2088 156.428V159.035H48.4088V156.428H48.2088ZM48.3088 158.935H36.5938V159.135H48.3088V158.935ZM54.2357 172.499L54.1802 172.582L54.1813 172.583L54.2357 172.499ZM51.4967 169.298L51.4064 169.341L51.4967 169.298ZM51.5957 160.388L51.6839 160.435L51.6842 160.434L51.5957 160.388ZM54.6317 157.22L54.6821 157.306L54.6831 157.306L54.6317 157.22ZM63.9707 157.187L63.919 157.272L63.9707 157.187ZM66.9077 160.322L66.8188 160.368L66.8195 160.369L66.9077 160.322ZM67.9637 173.258V173.358H68.0637V173.258H67.9637ZM64.8947 173.258H64.7947V173.358H64.8947V173.258ZM64.8947 169.826H64.9947V169.726H64.8947V169.826ZM64.8287 169.826V169.726H64.7678L64.7399 169.78L64.8287 169.826ZM63.4757 171.674L63.4037 171.605L63.4036 171.605L63.4757 171.674ZM61.3967 173.093L61.3559 173.002L61.3967 173.093ZM62.1557 170.255L62.2091 170.339L62.2097 170.339L62.1557 170.255ZM64.1357 168.011L64.0462 167.966L64.0458 167.967L64.1357 168.011ZM64.1687 161.642L64.0784 161.685L64.0792 161.687L64.1687 161.642ZM62.2547 159.464L62.1997 159.547L62.2013 159.548L62.2547 159.464ZM56.2487 159.464L56.1947 159.38L56.1937 159.38L56.2487 159.464ZM54.3017 161.708L54.2118 161.664L54.2114 161.665L54.3017 161.708ZM54.3017 168.011L54.211 168.053L54.2114 168.054L54.3017 168.011ZM56.2157 170.222L56.1607 170.305L56.2157 170.222ZM58.4597 173.554C56.848 173.554 55.4596 173.173 54.2901 172.415L54.1813 172.583C55.3878 173.365 56.8154 173.754 58.4597 173.754V173.554ZM54.2912 172.416C53.1188 171.634 52.2176 170.581 51.587 169.255L51.4064 169.341C52.0518 170.698 52.9765 171.78 54.1802 172.582L54.2912 172.416ZM51.587 169.255C50.956 167.928 50.6397 166.457 50.6397 164.843H50.4397C50.4397 166.484 50.7614 167.984 51.4064 169.341L51.587 169.255ZM50.6397 164.843C50.6397 163.208 50.9884 161.739 51.6839 160.435L51.5075 160.341C50.795 161.677 50.4397 163.178 50.4397 164.843H50.6397ZM51.6842 160.434C52.3794 159.109 53.3781 158.067 54.6821 157.306L54.5813 157.133C53.2452 157.913 52.2199 158.983 51.5071 160.341L51.6842 160.434ZM54.6831 157.306C55.9847 156.525 57.5502 156.132 59.3837 156.132V155.932C57.5212 155.932 55.9186 156.331 54.5802 157.134L54.6831 157.306ZM59.3837 156.132C61.1511 156.132 62.6614 156.514 63.919 157.272L64.0224 157.101C62.728 156.32 61.1803 155.932 59.3837 155.932V156.132ZM63.919 157.272C65.1792 158.033 66.1454 159.064 66.8188 160.368L66.9965 160.276C66.306 158.939 65.3141 157.881 64.0224 157.101L63.919 157.272ZM66.8195 160.369C67.5151 161.673 67.8637 163.131 67.8637 164.744H68.0637C68.0637 163.101 67.7083 161.611 66.9959 160.275L66.8195 160.369ZM67.8637 164.744V173.258H68.0637V164.744H67.8637ZM67.9637 173.158H64.8947V173.358H67.9637V173.158ZM64.9947 173.258V169.826H64.7947V173.258H64.9947ZM64.8947 169.726H64.8287V169.926H64.8947V169.726ZM64.7399 169.78C64.4149 170.408 63.9699 171.016 63.4037 171.605L63.5477 171.743C64.1254 171.143 64.5825 170.52 64.9175 169.872L64.7399 169.78ZM63.4036 171.605C62.8638 172.166 62.1819 172.632 61.3559 173.002L61.4375 173.184C62.2835 172.806 62.9876 172.326 63.5478 171.743L63.4036 171.605ZM61.3559 173.002C60.5353 173.369 59.5707 173.554 58.4597 173.554V173.754C59.5927 173.754 60.5861 173.565 61.4375 173.184L61.3559 173.002ZM59.2517 171.147C60.3684 171.147 61.3553 170.879 62.2091 170.339L62.1023 170.17C61.284 170.687 60.335 170.947 59.2517 170.947V171.147ZM62.2097 170.339C63.0836 169.779 63.7558 169.017 64.2255 168.055L64.0458 167.967C63.5916 168.897 62.9438 169.631 62.1017 170.171L62.2097 170.339ZM64.2251 168.056C64.7167 167.072 64.9617 165.979 64.9617 164.777H64.7617C64.7617 165.951 64.5226 167.013 64.0462 167.966L64.2251 168.056ZM64.9617 164.777C64.9617 163.597 64.7279 162.537 64.2581 161.597L64.0792 161.687C64.5335 162.595 64.7617 163.624 64.7617 164.777H64.9617ZM64.259 161.599C63.8111 160.658 63.1606 159.918 62.3081 159.379L62.2013 159.548C63.0207 160.066 63.6462 160.777 64.0784 161.685L64.259 161.599ZM62.3097 159.38C61.4554 158.818 60.4568 158.539 59.3177 158.539V158.739C60.4226 158.739 61.382 159.009 62.1997 159.547L62.3097 159.38ZM59.3177 158.539C58.1138 158.539 57.0713 158.818 56.1947 159.38L56.3027 159.548C57.142 159.01 58.1456 158.739 59.3177 158.739V158.539ZM56.1937 159.38C55.342 159.941 54.6813 160.703 54.2118 161.664L54.3915 161.752C54.8461 160.821 55.4834 160.087 56.3036 159.547L56.1937 159.38ZM54.2114 161.665C53.7641 162.604 53.5417 163.675 53.5417 164.876H53.7417C53.7417 163.7 53.9593 162.659 54.392 161.751L54.2114 161.665ZM53.5417 164.876C53.5417 166.033 53.7643 167.093 54.211 168.053L54.3924 167.969C53.9591 167.037 53.7417 166.007 53.7417 164.876H53.5417ZM54.2114 168.054C54.6591 168.994 55.3091 169.745 56.1607 170.305L56.2706 170.138C55.4503 169.599 54.8243 168.876 54.392 167.968L54.2114 168.054ZM56.1607 170.305C57.0159 170.868 58.0479 171.147 59.2517 171.147V170.947C58.0795 170.947 57.0875 170.676 56.2706 170.138L56.1607 170.305ZM78.3747 172.367L78.3356 172.459L78.3368 172.459L78.3747 172.367ZM74.6127 169.859L74.5412 169.929L74.542 169.93L74.6127 169.859ZM72.2037 166.196L72.1105 166.232L72.1112 166.234L72.2037 166.196ZM72.2037 157.253L72.111 157.215L72.1107 157.216L72.2037 157.253ZM74.6127 153.557L74.542 153.486L74.5412 153.487L74.6127 153.557ZM78.3747 151.082L78.4125 151.174L78.4137 151.174L78.3747 151.082ZM86.1627 150.158H86.2627V150.058H86.1627V150.158ZM86.1627 152.963V153.063H86.2627V152.963H86.1627ZM77.0547 155.471L76.984 155.4L76.983 155.401L77.0547 155.471ZM75.2397 158.243L75.1474 158.204L75.2397 158.243ZM75.2397 165.173L75.1471 165.211L75.1474 165.211L75.2397 165.173ZM77.0547 167.945L76.983 168.015L76.984 168.016L77.0547 167.945ZM79.8267 169.793L79.8651 169.701L79.8267 169.793ZM86.1627 170.453H86.2627V170.353H86.1627V170.453ZM86.1627 173.258V173.358H86.2627V173.258H86.1627ZM83.1927 173.158C81.4441 173.158 79.8511 172.863 78.4125 172.274L78.3368 172.459C79.8022 173.059 81.4213 173.358 83.1927 173.358V173.158ZM78.4137 172.275C76.9729 171.664 75.7298 170.835 74.6834 169.788L74.542 169.93C75.6075 170.995 76.8725 171.838 78.3356 172.459L78.4137 172.275ZM74.6841 169.789C73.6592 168.742 72.8633 167.532 72.2961 166.158L72.1112 166.234C72.688 167.632 73.4981 168.864 74.5412 169.929L74.6841 169.789ZM72.2968 166.159C71.7516 164.764 71.4787 163.28 71.4787 161.708H71.2787C71.2787 163.304 71.5558 164.812 72.1105 166.232L72.2968 166.159ZM71.4787 161.708C71.4787 160.136 71.7516 158.663 72.2966 157.29L72.1107 157.216C71.5558 158.614 71.2787 160.112 71.2787 161.708H71.4787ZM72.2963 157.291C72.8636 155.894 73.6595 154.673 74.6841 153.627L74.5412 153.487C73.4979 154.552 72.6878 155.796 72.111 157.215L72.2963 157.291ZM74.6834 153.628C75.7295 152.581 76.9722 151.764 78.4125 151.174L78.3368 150.989C76.8731 151.588 75.6078 152.42 74.542 153.486L74.6834 153.628ZM78.4137 151.174C79.852 150.564 81.4445 150.258 83.1927 150.258V150.058C81.4208 150.058 79.8013 150.368 78.3356 150.99L78.4137 151.174ZM83.1927 150.258H86.1627V150.058H83.1927V150.258ZM86.0627 150.158V152.963H86.2627V150.158H86.0627ZM86.1627 152.863H83.2917V153.063H86.1627V152.863ZM83.2917 152.863C82.0257 152.863 80.8575 153.085 79.7882 153.531L79.8651 153.715C80.9078 153.281 82.0496 153.063 83.2917 153.063V152.863ZM79.7882 153.531C78.7204 153.975 77.7854 154.599 76.984 155.4L77.1254 155.542C77.9079 154.759 78.8209 154.15 79.8651 153.715L79.7882 153.531ZM76.983 155.401C76.2039 156.203 75.592 157.137 75.1474 158.204L75.332 158.281C75.7673 157.237 76.3655 156.323 77.1264 155.541L76.983 155.401ZM75.1474 158.204C74.7018 159.274 74.4797 160.442 74.4797 161.708H74.6797C74.6797 160.466 74.8975 159.324 75.332 158.281L75.1474 158.204ZM74.4797 161.708C74.4797 162.952 74.7019 164.12 75.1471 165.211L75.3323 165.135C74.8974 164.07 74.6797 162.928 74.6797 161.708H74.4797ZM75.1474 165.211C75.592 166.279 76.2039 167.213 76.983 168.015L77.1264 167.875C76.3655 167.093 75.7673 166.179 75.332 165.134L75.1474 165.211ZM76.984 168.016C77.7854 168.817 78.7204 169.44 79.7882 169.885L79.8651 169.701C78.8209 169.265 77.9079 168.657 77.1254 167.874L76.984 168.016ZM79.7882 169.885C80.8575 170.331 82.0257 170.553 83.2917 170.553V170.353C82.0496 170.353 80.9078 170.135 79.8651 169.701L79.7882 169.885ZM83.2917 170.553H86.1627V170.353H83.2917V170.553ZM86.0627 170.453V173.258H86.2627V170.453H86.0627ZM86.1627 173.158H83.1927V173.358H86.1627V173.158ZM92.5208 172.499L92.4654 172.582L92.4665 172.583L92.5208 172.499ZM89.7818 169.298L89.6915 169.341L89.7818 169.298ZM89.8808 160.388L89.9691 160.435L89.9694 160.434L89.8808 160.388ZM92.9168 157.22L92.9672 157.306L92.9683 157.306L92.9168 157.22ZM102.256 157.187L102.204 157.272L102.256 157.187ZM105.193 160.322L105.104 160.368L105.105 160.369L105.193 160.322ZM106.249 173.258V173.358H106.349V173.258H106.249ZM103.18 173.258H103.08V173.358H103.18V173.258ZM103.18 169.826H103.28V169.726H103.18V169.826ZM103.114 169.826V169.726H103.053L103.025 169.78L103.114 169.826ZM101.761 171.674L101.689 171.605L101.689 171.605L101.761 171.674ZM99.6818 173.093L99.641 173.002L99.6818 173.093ZM100.441 170.255L100.494 170.339L100.495 170.339L100.441 170.255ZM102.421 168.011L102.331 167.966L102.331 167.967L102.421 168.011ZM102.454 161.642L102.364 161.685L102.364 161.687L102.454 161.642ZM100.54 159.464L100.485 159.547L100.486 159.548L100.54 159.464ZM94.5338 159.464L94.4799 159.38L94.4789 159.38L94.5338 159.464ZM92.5868 161.708L92.497 161.664L92.4966 161.665L92.5868 161.708ZM92.5868 168.011L92.4962 168.053L92.4966 168.054L92.5868 168.011ZM94.5008 170.222L94.4459 170.305L94.5008 170.222ZM96.7448 173.554C95.1332 173.554 93.7447 173.173 92.5752 172.415L92.4665 172.583C93.673 173.365 95.1005 173.754 96.7448 173.754V173.554ZM92.5763 172.416C91.404 171.634 90.5027 170.581 89.8722 169.255L89.6915 169.341C90.337 170.698 91.2617 171.78 92.4654 172.582L92.5763 172.416ZM89.8722 169.255C89.2411 167.928 88.9248 166.457 88.9248 164.843H88.7248C88.7248 166.484 89.0466 167.984 89.6915 169.341L89.8722 169.255ZM88.9248 164.843C88.9248 163.208 89.2736 161.739 89.9691 160.435L89.7926 160.341C89.0801 161.677 88.7248 163.178 88.7248 164.843H88.9248ZM89.9694 160.434C90.6646 159.109 91.6633 158.067 92.9672 157.306L92.8665 157.133C91.5304 157.913 90.5051 158.983 89.7923 160.341L89.9694 160.434ZM92.9683 157.306C94.2699 156.525 95.8353 156.132 97.6688 156.132V155.932C95.8064 155.932 94.2038 156.331 92.8654 157.134L92.9683 157.306ZM97.6688 156.132C99.4362 156.132 100.947 156.514 102.204 157.272L102.308 157.101C101.013 156.32 99.4655 155.932 97.6688 155.932V156.132ZM102.204 157.272C103.464 158.033 104.431 159.064 105.104 160.368L105.282 160.276C104.591 158.939 103.599 157.881 102.308 157.101L102.204 157.272ZM105.105 160.369C105.8 161.673 106.149 163.131 106.149 164.744H106.349C106.349 163.101 105.993 161.611 105.281 160.275L105.105 160.369ZM106.149 164.744V173.258H106.349V164.744H106.149ZM106.249 173.158H103.18V173.358H106.249V173.158ZM103.28 173.258V169.826H103.08V173.258H103.28ZM103.18 169.726H103.114V169.926H103.18V169.726ZM103.025 169.78C102.7 170.408 102.255 171.016 101.689 171.605L101.833 171.743C102.411 171.143 102.868 170.52 103.203 169.872L103.025 169.78ZM101.689 171.605C101.149 172.166 100.467 172.632 99.641 173.002L99.7227 173.184C100.569 172.806 101.273 172.326 101.833 171.743L101.689 171.605ZM99.641 173.002C98.8204 173.369 97.8559 173.554 96.7448 173.554V173.754C97.8778 173.754 98.8713 173.565 99.7227 173.184L99.641 173.002ZM97.5368 171.147C98.6535 171.147 99.6405 170.879 100.494 170.339L100.387 170.17C99.5692 170.687 98.6201 170.947 97.5368 170.947V171.147ZM100.495 170.339C101.369 169.779 102.041 169.017 102.511 168.055L102.331 167.967C101.877 168.897 101.229 169.631 100.387 170.171L100.495 170.339ZM102.51 168.056C103.002 167.072 103.247 165.979 103.247 164.777H103.047C103.047 165.951 102.808 167.013 102.331 167.966L102.51 168.056ZM103.247 164.777C103.247 163.597 103.013 162.537 102.543 161.597L102.364 161.687C102.819 162.595 103.047 163.624 103.047 164.777H103.247ZM102.544 161.599C102.096 160.658 101.446 159.918 100.593 159.379L100.486 159.548C101.306 160.066 101.931 160.777 102.364 161.685L102.544 161.599ZM100.595 159.38C99.7406 158.818 98.7419 158.539 97.6028 158.539V158.739C98.7078 158.739 99.6671 159.009 100.485 159.547L100.595 159.38ZM97.6028 158.539C96.3989 158.539 95.3565 158.818 94.4799 159.38L94.5878 159.548C95.4272 159.01 96.4307 158.739 97.6028 158.739V158.539ZM94.4789 159.38C93.6271 159.941 92.9664 160.703 92.497 161.664L92.6767 161.752C93.1313 160.821 93.7686 160.087 94.5888 159.547L94.4789 159.38ZM92.4966 161.665C92.0492 162.604 91.8268 163.675 91.8268 164.876H92.0268C92.0268 163.7 92.2445 162.659 92.6771 161.751L92.4966 161.665ZM91.8268 164.876C91.8268 166.033 92.0495 167.093 92.4962 168.053L92.6775 167.969C92.2442 167.037 92.0268 166.007 92.0268 164.876H91.8268ZM92.4966 168.054C92.9442 168.994 93.5943 169.745 94.4459 170.305L94.5558 170.138C93.7354 169.599 93.1095 168.876 92.6771 167.968L92.4966 168.054ZM94.4459 170.305C95.3011 170.868 96.333 171.147 97.5368 171.147V170.947C96.3647 170.947 95.3726 170.676 94.5558 170.138L94.4459 170.305ZM111.083 173.258H110.983V173.358H111.083V173.258ZM111.083 149.168V149.068H110.983V149.168H111.083ZM114.119 149.168H114.219V149.068H114.119V149.168ZM114.119 173.258V173.358H114.219V173.258H114.119ZM111.183 173.258V149.168H110.983V173.258H111.183ZM111.083 149.268H114.119V149.068H111.083V149.268ZM114.019 149.168V173.258H114.219V149.168H114.019ZM114.119 173.158H111.083V173.358H114.119V173.158Z" fill="#2E7D32" fill-opacity="0.1" mask="url(#path-5-outside-1_24_15)"/>
</svg>
