<svg width="19" height="19" viewBox="0 0 19 19" fill="none" xmlns="http://www.w3.org/2000/svg">
<path fill-rule="evenodd" clip-rule="evenodd" d="M3.16699 15.1745C3.16699 15.0143 3.23065 14.8606 3.34396 14.7473C3.45727 14.634 3.61095 14.5703 3.7712 14.5703H15.0497C15.2099 14.5703 15.3636 14.634 15.4769 14.7473C15.5902 14.8606 15.6539 15.0143 15.6539 15.1745C15.6539 15.3348 15.5902 15.4884 15.4769 15.6018C15.3636 15.7151 15.2099 15.7787 15.0497 15.7787H3.7712C3.61095 15.7787 3.45727 15.7151 3.34396 15.6018C3.23065 15.4884 3.16699 15.3348 3.16699 15.1745ZM5.58381 17.5913C5.58381 17.4311 5.64746 17.2774 5.76077 17.1641C5.87408 17.0508 6.02777 16.9871 6.18801 16.9871H12.6329C12.7931 16.9871 12.9468 17.0508 13.0601 17.1641C13.1734 17.2774 13.2371 17.4311 13.2371 17.5913C13.2371 17.7516 13.1734 17.9053 13.0601 18.0186C12.9468 18.1319 12.7931 18.1955 12.6329 18.1955H6.18801C6.02777 18.1955 5.87408 18.1319 5.76077 18.0186C5.64746 17.9053 5.58381 17.7516 5.58381 17.5913Z" fill="url(#paint0_linear_99_264)"/>
<path d="M4.64349 12.1535C4.18907 11.3254 3.95818 10.3933 3.97354 9.44886C3.98891 8.50444 4.25001 7.58032 4.73112 6.76749C5.21223 5.95466 5.89677 5.28117 6.71732 4.81334C7.53786 4.34552 8.46612 4.09949 9.41066 4.09949C10.3552 4.09949 11.2835 4.34552 12.104 4.81334C12.9245 5.28117 13.6091 5.95466 14.0902 6.76749C14.5713 7.58032 14.8324 8.50444 14.8478 9.44886C14.8631 10.3933 14.6322 11.3254 14.1778 12.1535H17.4663C17.6265 12.1535 17.7802 12.2171 17.8935 12.3304C18.0069 12.4437 18.0705 12.5974 18.0705 12.7577C18.0705 12.9179 18.0069 13.0716 17.8935 13.1849C17.7802 13.2982 17.6265 13.3619 17.4663 13.3619H1.3542C1.19396 13.3619 1.04028 13.2982 0.926967 13.1849C0.813657 13.0716 0.75 12.9179 0.75 12.7577C0.75 12.5974 0.813657 12.4437 0.926967 12.3304C1.04028 12.2171 1.19396 12.1535 1.3542 12.1535H4.64349Z" fill="url(#paint1_linear_99_264)"/>
<path fill-rule="evenodd" clip-rule="evenodd" d="M9.41025 0.875C9.5705 0.875 9.72418 0.938657 9.83749 1.05197C9.9508 1.16528 10.0145 1.31896 10.0145 1.4792V2.28481C10.0145 2.44505 9.9508 2.59874 9.83749 2.71205C9.72418 2.82536 9.5705 2.88901 9.41025 2.88901C9.25001 2.88901 9.09633 2.82536 8.98302 2.71205C8.86971 2.59874 8.80605 2.44505 8.80605 2.28481V1.4792C8.80605 1.31896 8.86971 1.16528 8.98302 1.05197C9.09633 0.938657 9.25001 0.875 9.41025 0.875ZM3.28685 3.41185C3.40014 3.2987 3.55371 3.23515 3.71382 3.23515C3.87394 3.23515 4.0275 3.2987 4.14079 3.41185L4.45739 3.72765C4.56751 3.84155 4.62848 3.99414 4.62718 4.15257C4.62588 4.31099 4.56241 4.46256 4.45044 4.57464C4.33846 4.68671 4.18695 4.75033 4.02853 4.75178C3.87011 4.75323 3.71746 4.6924 3.60345 4.58239L3.28685 4.26579C3.1737 4.1525 3.11015 3.99894 3.11015 3.83882C3.11015 3.67871 3.1737 3.52514 3.28685 3.41185ZM15.5337 3.41185C15.6468 3.52514 15.7104 3.67871 15.7104 3.83882C15.7104 3.99894 15.6468 4.1525 15.5337 4.26579L15.2171 4.58239C15.1025 4.68912 14.951 4.74722 14.7945 4.74446C14.638 4.7417 14.4886 4.67829 14.3779 4.56759C14.2672 4.45689 14.2038 4.30754 14.201 4.15101C14.1983 3.99448 14.2564 3.84299 14.3631 3.72845L14.6797 3.41185C14.793 3.2987 14.9466 3.23515 15.1067 3.23515C15.2668 3.23515 15.4204 3.2987 15.5337 3.41185ZM0.75 9.53525C0.75 9.37501 0.813657 9.22133 0.926967 9.10802C1.04028 8.99471 1.19396 8.93105 1.3542 8.93105H2.15981C2.32005 8.93105 2.47374 8.99471 2.58705 9.10802C2.70036 9.22133 2.76401 9.37501 2.76401 9.53525C2.76401 9.6955 2.70036 9.84918 2.58705 9.96249C2.47374 10.0758 2.32005 10.1395 2.15981 10.1395H1.3542C1.19396 10.1395 1.04028 10.0758 0.926967 9.96249C0.813657 9.84918 0.75 9.6955 0.75 9.53525ZM16.0565 9.53525C16.0565 9.37501 16.1202 9.22133 16.2335 9.10802C16.3468 8.99471 16.5005 8.93105 16.6607 8.93105H17.4663C17.6265 8.93105 17.7802 8.99471 17.8935 9.10802C18.0069 9.22133 18.0705 9.37501 18.0705 9.53525C18.0705 9.6955 18.0069 9.84918 17.8935 9.96249C17.7802 10.0758 17.6265 10.1395 17.4663 10.1395H16.6607C16.5005 10.1395 16.3468 10.0758 16.2335 9.96249C16.1202 9.84918 16.0565 9.6955 16.0565 9.53525Z" fill="url(#paint2_linear_99_264)"/>
<defs>
<linearGradient id="paint0_linear_99_264" x1="9.41043" y1="14.5703" x2="9.41043" y2="18.1955" gradientUnits="userSpaceOnUse">
<stop stop-color="#3E3B92"/>
<stop offset="1" stop-color="#1A237E"/>
</linearGradient>
<linearGradient id="paint1_linear_99_264" x1="9.41025" y1="4.09949" x2="9.41025" y2="13.3619" gradientUnits="userSpaceOnUse">
<stop stop-color="#3E3B92"/>
<stop offset="1" stop-color="#1A237E"/>
</linearGradient>
<linearGradient id="paint2_linear_99_264" x1="9.41025" y1="0.875" x2="9.41025" y2="10.1395" gradientUnits="userSpaceOnUse">
<stop stop-color="#3E3B92"/>
<stop offset="1" stop-color="#1A237E"/>
</linearGradient>
</defs>
</svg>
