<svg width="19" height="19" viewBox="0 0 19 19" fill="none" xmlns="http://www.w3.org/2000/svg">
<path d="M13.9361 9.28718C13.9361 10.3974 13.495 11.4621 12.71 12.2472C11.925 13.0322 10.8602 13.4732 9.75001 13.4732C8.6398 13.4732 7.57507 13.0322 6.79003 12.2472C6.00499 11.4621 5.56396 10.3974 5.56396 9.28718C5.56396 8.17697 6.00499 7.11224 6.79003 6.3272C7.57507 5.54216 8.6398 5.10114 9.75001 5.10114C10.8602 5.10114 11.925 5.54216 12.71 6.3272C13.495 7.11224 13.9361 8.17697 13.9361 9.28718Z" fill="#FFD54F"/>
<path fill-rule="evenodd" clip-rule="evenodd" d="M9.75 0.287231C9.91653 0.287231 10.0762 0.353386 10.194 0.471141C10.3118 0.588897 10.3779 0.748607 10.3779 0.915138V2.58956C10.3779 2.75609 10.3118 2.9158 10.194 3.03355C10.0762 3.15131 9.91653 3.21746 9.75 3.21746C9.58347 3.21746 9.42376 3.15131 9.306 3.03355C9.18825 2.9158 9.12209 2.75609 9.12209 2.58956V0.915138C9.12209 0.748607 9.18825 0.588897 9.306 0.471141C9.42376 0.353386 9.58347 0.287231 9.75 0.287231ZM2.77521 2.35179C2.83088 2.29091 2.898 2.2416 2.97274 2.20667C3.04747 2.17174 3.12836 2.15188 3.21078 2.14823C3.29319 2.14457 3.37552 2.15719 3.45305 2.18537C3.53059 2.21355 3.60181 2.25673 3.66265 2.31244L5.52209 4.01281C5.58423 4.0681 5.63476 4.13518 5.67075 4.21015C5.70675 4.28513 5.72749 4.36651 5.73177 4.44957C5.73605 4.53262 5.7238 4.61571 5.6957 4.69399C5.66761 4.77227 5.62425 4.84419 5.56814 4.90557C5.51202 4.96696 5.44427 5.01658 5.36881 5.05156C5.29336 5.08655 5.21171 5.10619 5.1286 5.10936C5.04549 5.11252 4.96258 5.09915 4.88469 5.07001C4.80679 5.04087 4.73546 4.99654 4.67484 4.9396L2.81456 3.23923C2.75368 3.18356 2.70436 3.11644 2.66944 3.0417C2.63451 2.96697 2.61465 2.88608 2.61099 2.80366C2.60734 2.72125 2.61996 2.63892 2.64814 2.56139C2.67632 2.48385 2.7195 2.41263 2.77521 2.35179ZM16.7248 2.35179C16.7805 2.41263 16.8237 2.48385 16.8519 2.56139C16.88 2.63892 16.8927 2.72125 16.889 2.80366C16.8854 2.88608 16.8655 2.96697 16.8306 3.0417C16.7956 3.11644 16.7463 3.18356 16.6854 3.23923L14.8252 4.9396C14.7018 5.04933 14.5403 5.10609 14.3754 5.09758C14.2106 5.08908 14.0557 5.01601 13.9443 4.89418C13.833 4.77234 13.774 4.61156 13.7803 4.44661C13.7866 4.28166 13.8576 4.12582 13.9779 4.01281L15.8382 2.31244C15.899 2.25673 15.9702 2.21355 16.0478 2.18537C16.1253 2.15719 16.2076 2.14457 16.2901 2.14823C16.3725 2.15188 16.4534 2.17174 16.5281 2.20667C16.6028 2.2416 16.67 2.29091 16.7256 2.35179M0.75 9.28723C0.75 9.1207 0.816154 8.96099 0.93391 8.84323C1.05167 8.72548 1.21138 8.65932 1.37791 8.65932H3.05233C3.21886 8.65932 3.37857 8.72548 3.49632 8.84323C3.61408 8.96099 3.68023 9.1207 3.68023 9.28723C3.68023 9.45376 3.61408 9.61347 3.49632 9.73123C3.37857 9.84898 3.21886 9.91514 3.05233 9.91514H1.37791C1.21138 9.91514 1.05167 9.84898 0.93391 9.73123C0.816154 9.61347 0.75 9.45376 0.75 9.28723ZM15.8198 9.28723C15.8198 9.1207 15.8859 8.96099 16.0037 8.84323C16.1214 8.72548 16.2811 8.65932 16.4477 8.65932H18.1221C18.2886 8.65932 18.4483 8.72548 18.5661 8.84323C18.6838 8.96099 18.75 9.1207 18.75 9.28723C18.75 9.45376 18.6838 9.61347 18.5661 9.73123C18.4483 9.84898 18.2886 9.91514 18.1221 9.91514H16.4477C16.2811 9.91514 16.1214 9.84898 16.0037 9.73123C15.8859 9.61347 15.8198 9.45376 15.8198 9.28723ZM13.9578 13.4942C14.0755 13.3766 14.2351 13.3106 14.4015 13.3106C14.5679 13.3106 14.7275 13.3766 14.8453 13.4942L16.7055 15.3553C16.8164 15.4744 16.8768 15.6318 16.874 15.7945C16.8711 15.9571 16.8052 16.1123 16.6901 16.2274C16.5751 16.3424 16.4199 16.4083 16.2572 16.4112C16.0946 16.4141 15.9371 16.3537 15.8181 16.2428L13.9578 14.3825C13.8402 14.2648 13.7742 14.1052 13.7742 13.9388C13.7742 13.7724 13.8402 13.6119 13.9578 13.4942ZM5.54302 13.495C5.60137 13.5534 5.64766 13.6226 5.67924 13.6988C5.71082 13.775 5.72708 13.8567 5.72708 13.9392C5.72708 14.0217 5.71082 14.1034 5.67924 14.1796C5.64766 14.2558 5.60137 14.325 5.54302 14.3833L3.68191 16.2436C3.56288 16.3545 3.40544 16.4149 3.24277 16.412C3.0801 16.4092 2.92489 16.3433 2.80985 16.2282C2.69481 16.1132 2.62891 15.958 2.62604 15.7953C2.62317 15.6326 2.68355 15.4752 2.79447 15.3562L4.65474 13.495C4.77248 13.3775 4.93207 13.3114 5.09846 13.3114C5.26486 13.3114 5.42529 13.3775 5.54302 13.495ZM9.75 15.357C9.91653 15.357 10.0762 15.4232 10.194 15.5409C10.3118 15.6587 10.3779 15.8184 10.3779 15.9849V17.6593C10.3779 17.8259 10.3118 17.9856 10.194 18.1033C10.0762 18.2211 9.91653 18.2872 9.75 18.2872C9.58347 18.2872 9.42376 18.2211 9.306 18.1033C9.18825 17.9856 9.12209 17.8259 9.12209 17.6593V15.9849C9.12209 15.8184 9.18825 15.6587 9.306 15.5409C9.42376 15.4232 9.58347 15.357 9.75 15.357Z" fill="#FFD54F"/>
</svg>
