<svg width="18" height="14" viewBox="0 0 18 14" fill="none" xmlns="http://www.w3.org/2000/svg">
<path d="M17.7951 9.49112C17.7951 9.64843 17.7326 9.79931 17.6214 9.91055C17.5102 10.0218 17.3593 10.0843 17.202 10.0843H0.593171C0.435852 10.0843 0.284977 10.0218 0.173736 9.91055C0.0624946 9.79931 0 9.64843 0 9.49112C0 9.3338 0.0624946 9.18292 0.173736 9.07168C0.284977 8.96044 0.435852 8.89795 0.593171 8.89795H3.59239C3.57057 8.70097 3.55943 8.50296 3.55903 8.30477C3.55903 6.88891 4.12148 5.53103 5.12265 4.52986C6.12382 3.52869 7.4817 2.96624 8.89756 2.96624C10.3134 2.96624 11.6713 3.52869 12.6725 4.52986C13.6737 5.53103 14.2361 6.88891 14.2361 8.30477C14.2357 8.50296 14.2246 8.70097 14.2027 8.89795H17.202C17.3593 8.89795 17.5102 8.96044 17.6214 9.07168C17.7326 9.18292 17.7951 9.3338 17.7951 9.49112ZM14.8293 11.8638H2.96586C2.80854 11.8638 2.65766 11.9263 2.54642 12.0375C2.43518 12.1488 2.37268 12.2997 2.37268 12.457C2.37268 12.6143 2.43518 12.7652 2.54642 12.8764C2.65766 12.9876 2.80854 13.0501 2.96586 13.0501H14.8293C14.9866 13.0501 15.1375 12.9876 15.2487 12.8764C15.36 12.7652 15.4224 12.6143 15.4224 12.457C15.4224 12.2997 15.36 12.1488 15.2487 12.0375C15.1375 11.9263 14.9866 11.8638 14.8293 11.8638ZM5.40082 2.04534C5.43568 2.11505 5.48393 2.17722 5.54281 2.22829C5.6017 2.27936 5.67007 2.31834 5.74401 2.34299C5.81796 2.36763 5.89604 2.37748 5.97379 2.37195C6.05154 2.36643 6.12744 2.34564 6.19715 2.31078C6.26687 2.27592 6.32904 2.22767 6.38011 2.16879C6.43118 2.1099 6.47015 2.04154 6.4948 1.96759C6.51945 1.89364 6.52929 1.81557 6.52377 1.73782C6.51824 1.66007 6.49746 1.58417 6.4626 1.51445L5.86943 0.328107C5.79903 0.187307 5.67558 0.08024 5.52624 0.0304596C5.37689 -0.0193208 5.2139 -0.00773681 5.07309 0.0626633C4.93229 0.133063 4.82523 0.256513 4.77545 0.405854C4.72567 0.555195 4.73725 0.718195 4.80765 0.858995L5.40082 2.04534ZM0.920898 5.27664L2.10724 5.86981C2.24794 5.94021 2.41085 5.95183 2.56012 5.90212C2.70939 5.85241 2.8328 5.74544 2.9032 5.60473C2.9736 5.46403 2.98522 5.30113 2.93551 5.15185C2.8858 5.00258 2.77883 4.87917 2.63813 4.80877L1.45179 4.2156C1.38212 4.18074 1.30627 4.15995 1.22856 4.1544C1.15086 4.14886 1.07282 4.15868 0.998907 4.18329C0.924995 4.2079 0.856655 4.24684 0.797789 4.29786C0.738923 4.34889 0.690683 4.41101 0.655825 4.48068C0.620966 4.55034 0.600171 4.6262 0.594627 4.7039C0.589083 4.78161 0.598898 4.85964 0.623512 4.93355C0.648127 5.00747 0.687058 5.07581 0.738083 5.13467C0.789109 5.19354 0.851229 5.24178 0.920898 5.27664ZM15.4224 5.93209C15.5143 5.93211 15.6049 5.91079 15.6871 5.86981L16.8735 5.27664C16.9432 5.24178 17.0053 5.19354 17.0563 5.13467C17.1073 5.07581 17.1463 5.00747 17.1709 4.93355C17.1955 4.85964 17.2053 4.78161 17.1998 4.7039C17.1942 4.6262 17.1734 4.55034 17.1386 4.48068C17.1037 4.41101 17.0555 4.34889 16.9966 4.29786C16.9377 4.24684 16.8694 4.2079 16.7955 4.18329C16.7216 4.15868 16.6435 4.14886 16.5658 4.1544C16.4881 4.15995 16.4123 4.18074 16.3426 4.2156L15.1563 4.80877C15.0369 4.86868 14.9412 4.96712 14.8848 5.08815C14.8283 5.20919 14.8144 5.34573 14.8451 5.47569C14.8759 5.60565 14.9497 5.72141 15.0545 5.80424C15.1592 5.88707 15.2889 5.93211 15.4224 5.93209ZM11.598 2.31078C11.6677 2.34569 11.7436 2.36652 11.8214 2.37207C11.8991 2.37762 11.9772 2.36779 12.0512 2.34313C12.1251 2.31848 12.1935 2.27949 12.2524 2.22839C12.3113 2.17729 12.3595 2.11509 12.3943 2.04534L12.9875 0.858995C13.0579 0.718195 13.0695 0.555195 13.0197 0.405854C12.9699 0.256513 12.8628 0.133063 12.722 0.0626633C12.5812 -0.0077368 12.4182 -0.0193208 12.2689 0.0304596C12.1196 0.08024 11.9961 0.187307 11.9257 0.328107L11.3325 1.51445C11.2976 1.58416 11.2768 1.66006 11.2712 1.73782C11.2657 1.81559 11.2755 1.89368 11.3002 1.96764C11.3248 2.0416 11.3638 2.10997 11.4149 2.16885C11.466 2.22773 11.5282 2.27596 11.598 2.31078Z" fill="url(#paint0_linear_99_263)"/>
<defs>
<linearGradient id="paint0_linear_99_263" x1="8.89756" y1="0" x2="8.89756" y2="13.0501" gradientUnits="userSpaceOnUse">
<stop stop-color="#FFD54F"/>
<stop offset="1" stop-color="#FF8A65"/>
</linearGradient>
</defs>
</svg>
