<svg width="15" height="19" viewBox="0 0 15 19" fill="none" xmlns="http://www.w3.org/2000/svg">
<path d="M14.6847 12.9276C14.6199 12.8473 14.5563 12.7669 14.4938 12.6894C13.6352 11.6202 13.1157 10.975 13.1157 7.9483C13.1157 6.38134 12.7515 5.09562 12.0338 4.13134C11.5045 3.41897 10.7891 2.87857 9.84616 2.4792C9.83403 2.47225 9.82319 2.46313 9.81416 2.45228C9.47499 1.28308 8.54687 0.5 7.5001 0.5C6.45332 0.5 5.52559 1.28308 5.18642 2.45107C5.17739 2.46154 5.1667 2.47037 5.15481 2.47719C2.95432 3.40973 1.88491 5.19888 1.88491 7.9471C1.88491 10.975 1.36621 11.6202 0.506777 12.6882C0.44433 12.7657 0.380712 12.8445 0.315922 12.9264C0.148564 13.1342 0.0425285 13.387 0.0103651 13.6549C-0.0217982 13.9227 0.0212568 14.1945 0.134435 14.4379C0.375247 14.9603 0.888486 15.2845 1.47432 15.2845H13.5302C14.1133 15.2845 14.623 14.9607 14.8646 14.4408C14.9783 14.1972 15.0217 13.9253 14.9898 13.6571C14.9579 13.3889 14.852 13.1357 14.6847 12.9276ZM7.5001 18.5C8.06409 18.4995 8.61744 18.3419 9.10147 18.0439C9.58549 17.7459 9.98214 17.3186 10.2493 16.8073C10.2619 16.7828 10.2681 16.7553 10.2674 16.7276C10.2666 16.6999 10.2589 16.6729 10.245 16.6491C10.2311 16.6254 10.2115 16.6058 10.188 16.5922C10.1646 16.5785 10.1381 16.5714 10.1112 16.5714H4.8898C4.86284 16.5713 4.83631 16.5784 4.81281 16.592C4.7893 16.6056 4.76961 16.6252 4.75566 16.649C4.74171 16.6727 4.73397 16.6998 4.7332 16.7275C4.73242 16.7553 4.73864 16.7827 4.75124 16.8073C5.01841 17.3185 5.415 17.7458 5.89895 18.0438C6.3829 18.3418 6.93617 18.4995 7.5001 18.5Z" fill="#4E4E4E"/>
</svg>
