<svg width="20" height="21" viewBox="0 0 20 21" fill="none" xmlns="http://www.w3.org/2000/svg">
<path d="M9.99958 20.3333C15.4606 20.3333 19.9996 15.8039 19.9996 10.3333C19.9996 4.87237 15.4505 0.333344 9.98954 0.333344C4.51937 0.333344 0 4.87237 0 10.3333C0 15.8039 4.52899 20.3333 9.99958 20.3333ZM10 18.6668C5.37187 18.6668 1.67531 14.9606 1.67531 10.3333C1.67531 5.71526 5.36183 1.99987 9.98954 1.99987C14.6072 1.99987 18.3226 5.71567 18.3326 10.3333C18.3423 14.9611 14.6177 18.6668 10 18.6668ZM7.6462 12.6474C9.93014 14.9414 12.8424 16.3921 14.5679 14.6762C14.629 14.6159 14.6847 14.5504 14.7344 14.4804C15.1853 13.9805 15.3129 13.3138 14.7344 12.8825C14.2834 12.5587 13.8032 12.2258 12.9892 11.6569C12.4207 11.2553 12.048 11.3528 11.6071 11.7941L11.2148 12.1764C11.0972 12.2843 10.9111 12.2747 10.7835 12.1961C10.4405 11.9903 9.86196 11.5293 9.31273 10.9805C8.77353 10.4408 8.2837 9.83347 8.09713 9.5097C8.02853 9.40178 7.97959 9.22526 8.11679 9.09809L8.49912 8.68606C8.94043 8.22551 9.03832 7.87246 8.62671 7.29394L7.42073 5.58809C7.0087 5.00958 6.41094 5.1175 5.75379 5.60775C5.70484 5.64707 5.66594 5.68639 5.62662 5.7253C3.90111 7.4508 5.36184 10.363 7.6462 12.6474Z" fill="#2E7D32"/>
</svg>
