<svg width="25" height="25" viewBox="0 0 25 25" fill="none" xmlns="http://www.w3.org/2000/svg">
<path fill-rule="evenodd" clip-rule="evenodd" d="M5.06432 15.6462C6.002 14.7085 7.27377 14.1818 8.59985 14.1818H16.5999C17.9259 14.1818 19.1977 14.7085 20.1354 15.6462C21.0731 16.5839 21.5999 17.8557 21.5999 19.1818V21.1818C21.5999 21.734 21.1521 22.1818 20.5999 22.1818C20.0476 22.1818 19.5999 21.734 19.5999 21.1818V19.1818C19.5999 18.3861 19.2838 17.6231 18.7212 17.0604C18.1586 16.4978 17.3955 16.1818 16.5999 16.1818H8.59985C7.8042 16.1818 7.04114 16.4978 6.47853 17.0604C5.91592 17.6231 5.59985 18.3861 5.59985 19.1818V21.1818C5.59985 21.734 5.15214 22.1818 4.59985 22.1818C4.04757 22.1818 3.59985 21.734 3.59985 21.1818V19.1818C3.59985 17.8557 4.12664 16.5839 5.06432 15.6462Z" fill="#484C52"/>
<path fill-rule="evenodd" clip-rule="evenodd" d="M12.5999 4.18176C10.943 4.18176 9.59985 5.52491 9.59985 7.18176C9.59985 8.83862 10.943 10.1818 12.5999 10.1818C14.2567 10.1818 15.5999 8.83862 15.5999 7.18176C15.5999 5.52491 14.2567 4.18176 12.5999 4.18176ZM7.59985 7.18176C7.59985 4.42034 9.83843 2.18176 12.5999 2.18176C15.3613 2.18176 17.5999 4.42034 17.5999 7.18176C17.5999 9.94319 15.3613 12.1818 12.5999 12.1818C9.83843 12.1818 7.59985 9.94319 7.59985 7.18176Z" fill="#484C52"/>
</svg>
