<svg width="15" height="21" viewBox="0 0 15 21" fill="none" xmlns="http://www.w3.org/2000/svg">
<path d="M7.5 0.208344C4.61625 0.208344 2.25 2.57459 2.25 5.45834V7.61459C1.53808 8.31065 0.972341 9.14188 0.585971 10.0595C0.1996 10.9771 0.000381033 11.9627 0 12.9583C0 17.0908 3.3675 20.4583 7.5 20.4583C11.6325 20.4583 15 17.0908 15 12.9583C14.9996 11.9627 14.8004 10.9771 14.414 10.0595C14.0277 9.14188 13.4619 8.31065 12.75 7.61459V5.45834C12.75 2.57459 10.3837 0.208344 7.5 0.208344ZM7.5 1.70834C9.56625 1.70834 11.25 3.39209 11.25 5.45834V6.48959C10.1438 5.84459 8.8695 5.45834 7.5 5.45834C6.1305 5.45834 4.85625 5.84534 3.75 6.48959V5.45834C3.75 3.39209 5.43375 1.70834 7.5 1.70834ZM7.5 6.95834C10.8225 6.95834 13.5 9.63584 13.5 12.9583C13.5 16.2808 10.8225 18.9583 7.5 18.9583C4.1775 18.9583 1.5 16.2808 1.5 12.9583C1.5 9.63584 4.1775 6.95834 7.5 6.95834ZM7.5 11.4583C7.10218 11.4583 6.72064 11.6164 6.43934 11.8977C6.15804 12.179 6 12.5605 6 12.9583C6 13.5133 6.30225 13.9881 6.75 14.2483V16.7083H8.25V14.2483C8.69775 13.9881 9 13.5133 9 12.9583C9 12.5605 8.84196 12.179 8.56066 11.8977C8.27936 11.6164 7.89782 11.4583 7.5 11.4583Z" fill="#2E7D32"/>
</svg>
