<svg width="24" height="20" viewBox="0 0 24 20" fill="none" xmlns="http://www.w3.org/2000/svg">
<path d="M4 3.4C4 3.0287 4.1475 2.6726 4.41005 2.41005C4.6726 2.1475 5.0287 2 5.4 2H7C7.26522 2 7.51957 1.89464 7.70711 1.70711C7.89464 1.51957 8 1.26522 8 1C8 0.734784 7.89464 0.48043 7.70711 0.292893C7.51957 0.105357 7.26522 0 7 0H5.4C4.49826 0 3.63346 0.358213 2.99584 0.995837C2.35821 1.63346 2 2.49826 2 3.4V5C2 5.26522 2.10536 5.51957 2.29289 5.70711C2.48043 5.89464 2.73478 6 3 6C3.26522 6 3.51957 5.89464 3.70711 5.70711C3.89464 5.51957 4 5.26522 4 5V3.4ZM17 0C16.7348 0 16.4804 0.105357 16.2929 0.292893C16.1054 0.48043 16 0.734784 16 1C16 1.26522 16.1054 1.51957 16.2929 1.70711C16.4804 1.89464 16.7348 2 17 2H18.6C18.9713 2 19.3274 2.1475 19.5899 2.41005C19.8525 2.6726 20 3.0287 20 3.4V5C20 5.26522 20.1054 5.51957 20.2929 5.70711C20.4804 5.89464 20.7348 6 21 6C21.2652 6 21.5196 5.89464 21.7071 5.70711C21.8946 5.51957 22 5.26522 22 5V3.4C22 2.49826 21.6418 1.63346 21.0042 0.995837C20.3665 0.358213 19.5017 0 18.6 0H17ZM4 15C4 14.7348 3.89464 14.4804 3.70711 14.2929C3.51957 14.1054 3.26522 14 3 14C2.73478 14 2.48043 14.1054 2.29289 14.2929C2.10536 14.4804 2 14.7348 2 15V16.6C2 17.5017 2.35821 18.3665 2.99584 19.0042C3.63346 19.6418 4.49826 20 5.4 20H7C7.26522 20 7.51957 19.8946 7.70711 19.7071C7.89464 19.5196 8 19.2652 8 19C8 18.7348 7.89464 18.4804 7.70711 18.2929C7.51957 18.1054 7.26522 18 7 18H5.4C5.0287 18 4.6726 17.8525 4.41005 17.5899C4.1475 17.3274 4 16.9713 4 16.6V15ZM22 15C22 14.7348 21.8946 14.4804 21.7071 14.2929C21.5196 14.1054 21.2652 14 21 14C20.7348 14 20.4804 14.1054 20.2929 14.2929C20.1054 14.4804 20 14.7348 20 15V16.6C20 16.9713 19.8525 17.3274 19.5899 17.5899C19.3274 17.8525 18.9713 18 18.6 18H17C16.7348 18 16.4804 18.1054 16.2929 18.2929C16.1054 18.4804 16 18.7348 16 19C16 19.2652 16.1054 19.5196 16.2929 19.7071C16.4804 19.8946 16.7348 20 17 20H18.6C19.5017 20 20.3665 19.6418 21.0042 19.0042C21.6418 18.3665 22 17.5017 22 16.6V15ZM1 9C0.734784 9 0.48043 9.10536 0.292893 9.29289C0.105357 9.48043 0 9.73478 0 10C0 10.2652 0.105357 10.5196 0.292893 10.7071C0.48043 10.8946 0.734784 11 1 11H23C23.2652 11 23.5196 10.8946 23.7071 10.7071C23.8946 10.5196 24 10.2652 24 10C24 9.73478 23.8946 9.48043 23.7071 9.29289C23.5196 9.10536 23.2652 9 23 9H1Z" fill="#FAFAFA"/>
</svg>
