<svg width="25" height="25" viewBox="0 0 25 25" fill="none" xmlns="http://www.w3.org/2000/svg">
<path fill-rule="evenodd" clip-rule="evenodd" d="M11.2 4.18176C7.33396 4.18176 4.19995 7.31577 4.19995 11.1818C4.19995 15.0478 7.33396 18.1818 11.2 18.1818C15.0659 18.1818 18.2 15.0478 18.2 11.1818C18.2 7.31577 15.0659 4.18176 11.2 4.18176ZM2.19995 11.1818C2.19995 6.2112 6.22939 2.18176 11.2 2.18176C16.1705 2.18176 20.2 6.2112 20.2 11.1818C20.2 16.1523 16.1705 20.1818 11.2 20.1818C6.22939 20.1818 2.19995 16.1523 2.19995 11.1818Z" fill="#484C52"/>
<path fill-rule="evenodd" clip-rule="evenodd" d="M16.1427 16.1247C16.5333 15.7342 17.1664 15.7342 17.557 16.1247L21.907 20.4747C22.2975 20.8652 22.2975 21.4984 21.907 21.8889C21.5164 22.2794 20.8833 22.2794 20.4927 21.8889L16.1427 17.5389C15.7522 17.1484 15.7522 16.5152 16.1427 16.1247Z" fill="#484C52"/>
</svg>
