<svg width="19" height="19" viewBox="0 0 19 19" fill="none" xmlns="http://www.w3.org/2000/svg">
<path d="M6.95 9.50002C6.95 9.72546 6.86045 9.94166 6.70104 10.1011C6.54163 10.2605 6.32543 10.35 6.1 10.35C5.87457 10.35 5.65837 10.2605 5.49896 10.1011C5.33955 9.94166 5.25 9.72546 5.25 9.50002C5.25 9.27459 5.33955 9.05839 5.49896 8.89898C5.65837 8.73958 5.87457 8.65002 6.1 8.65002C6.32543 8.65002 6.54163 8.73958 6.70104 8.89898C6.86045 9.05839 6.95 9.27459 6.95 9.50002ZM10.35 9.50002C10.35 9.72546 10.2604 9.94166 10.101 10.1011C9.94163 10.2605 9.72543 10.35 9.5 10.35C9.27457 10.35 9.05837 10.2605 8.89896 10.1011C8.73955 9.94166 8.65 9.72546 8.65 9.50002C8.65 9.27459 8.73955 9.05839 8.89896 8.89898C9.05837 8.73958 9.27457 8.65002 9.5 8.65002C9.72543 8.65002 9.94163 8.73958 10.101 8.89898C10.2604 9.05839 10.35 9.27459 10.35 9.50002Z" fill="#007BFF"/>
<path d="M12.05 1V18M18 9.5C18 12.7054 18 14.3084 17.0038 15.3038C16.1002 16.2082 14.6969 16.2915 12.05 16.3M9.5 2.7H7.8C4.59465 2.7 2.99155 2.7 1.9962 3.6962C1.00085 4.6924 1 6.29465 1 9.5C1 12.7054 1 14.3084 1.9962 15.3038C2.9924 16.2991 4.59465 16.3 7.8 16.3H9.5M12.05 2.7C14.6969 2.7085 16.1002 2.7918 17.0038 3.6962C17.5597 4.25125 17.8054 4.995 17.9133 6.1" stroke="#007BFF" stroke-width="1.5" stroke-linecap="round"/>
</svg>
