<svg width="16" height="17" viewBox="0 0 16 17" fill="none" xmlns="http://www.w3.org/2000/svg">
<g clip-path="url(#clip0_294_30)">
<path d="M11 7.41931C11 9.07931 9.66 10.4193 8 10.4193C6.34 10.4193 5 9.07931 5 7.41931C5 5.75931 6.34 4.41931 8 4.41931C9.66 4.41931 11 5.75931 11 7.41931Z" fill="#2E7D32"/>
<path fill-rule="evenodd" clip-rule="evenodd" d="M16 8.41931C16 12.8393 12.42 16.4193 8 16.4193C3.58 16.4193 0 12.8393 0 8.41931C0 3.99931 3.58 0.419312 8 0.419312C12.42 0.419312 16 3.99931 16 8.41931ZM4 14.1693C4.16 13.9033 5.71 11.4193 7.99 11.4193C10.26 11.4193 11.82 13.9093 11.98 14.1693C12.9099 13.5263 13.6696 12.667 14.194 11.6654C14.7183 10.6638 14.9915 9.54985 14.99 8.41931C14.99 4.54931 11.86 1.41931 7.99 1.41931C4.12 1.41931 0.99 4.54931 0.99 8.41931C0.99 10.7993 2.18 12.9093 4 14.1693Z" fill="#2E7D32"/>
</g>
<defs>
<clipPath id="clip0_294_30">
<rect width="16" height="16" fill="white" transform="translate(0 0.419312)"/>
</clipPath>
</defs>
</svg>
