<svg width="10" height="12" viewBox="0 0 10 12" fill="none" xmlns="http://www.w3.org/2000/svg">
<path d="M1.25 0.500458C0.56 0.500458 0 1.06046 0 1.75046V2.91246C0.000266309 3.1798 0.0719761 3.44221 0.207707 3.67253C0.343438 3.90285 0.538257 4.09271 0.772 4.22246L3.648 5.82146C3.0456 6.12557 2.56332 6.62391 2.27909 7.23595C1.99486 7.84798 1.92528 8.53797 2.08159 9.19443C2.2379 9.85089 2.61097 10.4355 3.14052 10.8538C3.67008 11.272 4.32518 11.4995 5 11.4995C5.67482 11.4995 6.32992 11.272 6.85948 10.8538C7.38903 10.4355 7.7621 9.85089 7.91841 9.19443C8.07472 8.53797 8.00514 7.84798 7.72091 7.23595C7.43668 6.62391 6.9544 6.12557 6.352 5.82146L9.229 4.22346C9.4627 4.0935 9.65742 3.90342 9.79298 3.67292C9.92854 3.44242 10 3.17987 10 2.91246V1.75046C10 1.06046 9.44 0.500458 8.75 0.500458H1.25ZM4 4.87246V1.50046H6V4.87246L5 5.42846L4 4.87246ZM7 8.50046C7 9.03089 6.78929 9.5396 6.41421 9.91467C6.03914 10.2897 5.53043 10.5005 5 10.5005C4.46957 10.5005 3.96086 10.2897 3.58579 9.91467C3.21071 9.5396 3 9.03089 3 8.50046C3 7.97002 3.21071 7.46132 3.58579 7.08624C3.96086 6.71117 4.46957 6.50046 5 6.50046C5.53043 6.50046 6.03914 6.71117 6.41421 7.08624C6.78929 7.46132 7 7.97002 7 8.50046Z" fill="#4E4E4E"/>
</svg>
