<svg width="11" height="12" viewBox="0 0 11 12" fill="none" xmlns="http://www.w3.org/2000/svg">
<path d="M3.64365 4.075H1.16865C1.02278 4.075 0.882888 4.01705 0.779744 3.91391C0.676599 3.81076 0.618652 3.67087 0.618652 3.525V1.05C0.618652 0.904131 0.676599 0.764236 0.779744 0.661091C0.882888 0.557946 1.02278 0.5 1.16865 0.5C1.31452 0.5 1.45442 0.557946 1.55756 0.661091C1.66071 0.764236 1.71865 0.904131 1.71865 1.05V2.975H3.64365C3.78952 2.975 3.92941 3.03295 4.03256 3.13609C4.1357 3.23924 4.19365 3.37913 4.19365 3.525C4.19365 3.67087 4.1357 3.81076 4.03256 3.91391C3.92941 4.01705 3.78952 4.075 3.64365 4.075Z" fill="#4E4E4E"/>
<path d="M10.45 6.54999C10.3041 6.54999 10.1643 6.49205 10.0611 6.3889C9.95796 6.28576 9.90002 6.14586 9.90002 5.99999C9.90044 5.03174 9.58126 4.09042 8.99202 3.3221C8.40278 2.55379 7.57642 2.00144 6.64118 1.75077C5.70594 1.50009 4.71411 1.56512 3.81959 1.93574C2.92508 2.30637 2.17791 2.96188 1.69402 3.80055C1.62094 3.9268 1.5007 4.01884 1.35975 4.05644C1.2188 4.09404 1.06869 4.0741 0.942445 4.00102C0.816196 3.92794 0.724148 3.8077 0.686551 3.66675C0.648955 3.52581 0.66889 3.3757 0.74197 3.24945C1.34711 2.20128 2.28125 1.38211 3.39947 0.919036C4.51768 0.455959 5.75747 0.374857 6.92649 0.688312C8.0955 1.00177 9.1284 1.69226 9.86493 2.65266C10.6015 3.61306 11.0005 4.78968 11 5.99999C11 6.14586 10.9421 6.28576 10.8389 6.3889C10.7358 6.49205 10.5959 6.54999 10.45 6.54999ZM9.83127 11.5C9.6854 11.5 9.5455 11.442 9.44236 11.3389C9.33921 11.2358 9.28127 11.0959 9.28127 10.95V9.02499H7.35627C7.2104 9.02499 7.0705 8.96705 6.96736 8.8639C6.86421 8.76076 6.80627 8.62086 6.80627 8.47499C6.80627 8.32912 6.86421 8.18923 6.96736 8.08608C7.0705 7.98294 7.2104 7.92499 7.35627 7.92499H9.83127C9.97714 7.92499 10.117 7.98294 10.2202 8.08608C10.3233 8.18923 10.3813 8.32912 10.3813 8.47499V10.95C10.3813 11.0959 10.3233 11.2358 10.2202 11.3389C10.117 11.442 9.97714 11.5 9.83127 11.5Z" fill="#4E4E4E"/>
<path d="M5.5 11.5C4.04175 11.4985 2.64365 10.9186 1.61252 9.88747C0.581386 8.85634 0.00145606 7.45824 0 6C0 5.85413 0.0579462 5.71423 0.161091 5.61109C0.264236 5.50794 0.404131 5.45 0.55 5.45C0.695869 5.45 0.835763 5.50794 0.938908 5.61109C1.04205 5.71423 1.1 5.85413 1.1 6C1.09958 6.96825 1.41876 7.90957 2.008 8.67789C2.59724 9.4462 3.42359 9.99855 4.35884 10.2492C5.29408 10.4999 6.28591 10.4349 7.18042 10.0642C8.07493 9.69362 8.82211 9.03811 9.30599 8.19945C9.34218 8.13693 9.39032 8.08216 9.44768 8.03825C9.50503 7.99435 9.57047 7.96217 9.64026 7.94355C9.71005 7.92494 9.78283 7.92025 9.85443 7.92976C9.92603 7.93927 9.99506 7.96279 10.0576 7.99897C10.1201 8.03516 10.1749 8.0833 10.2188 8.14065C10.2627 8.19801 10.2948 8.26345 10.3135 8.33324C10.3321 8.40303 10.3368 8.4758 10.3273 8.5474C10.3177 8.61901 10.2942 8.68803 10.258 8.75055C9.77441 9.58468 9.08059 10.2775 8.24574 10.7599C7.4109 11.2423 6.4642 11.4975 5.5 11.5Z" fill="#4E4E4E"/>
</svg>
